<?xml version="1.0" encoding="UTF-8" standalone="no"?>
<svg
   width="320"
   height="56"
   version="1.1"
   id="svg10"
   sodipodi:docname="page-logo.svg"
   inkscape:version="1.3 (0e150ed6c4, 2023-07-21)"
   xmlns:inkscape="http://www.inkscape.org/namespaces/inkscape"
   xmlns:sodipodi="http://sodipodi.sourceforge.net/DTD/sodipodi-0.dtd"
   xmlns="http://www.w3.org/2000/svg"
   xmlns:svg="http://www.w3.org/2000/svg">
  <defs
     id="defs14">
    <radialGradient
       id="grd"
       r="60"
       gradientUnits="userSpaceOnUse">
      <stop
         offset="0"
         stop-color="#9a9a9a"
         id="stop26" />
      <stop
         offset="0.70"
         stop-color="#bababa"
         id="stop27" />
      <stop
         offset="0.95"
         stop-color="#fff"
         id="stop28" />
    </radialGradient>
    <radialGradient
       id="radialGradient3"
       r="60"
       gradientUnits="userSpaceOnUse">
      <stop
         offset="0"
         stop-color="#9a9a9a"
         id="stop1" />
      <stop
         offset="0.70"
         stop-color="#bababa"
         id="stop2" />
      <stop
         offset="0.95"
         stop-color="#fff"
         id="stop3" />
    </radialGradient>
    <radialGradient
       id="radialGradient6"
       r="60"
       gradientUnits="userSpaceOnUse">
      <stop
         offset="0"
         stop-color="#9a9a9a"
         id="stop4" />
      <stop
         offset="0.70"
         stop-color="#bababa"
         id="stop5" />
      <stop
         offset="0.95"
         stop-color="#fff"
         id="stop6" />
    </radialGradient>
    <radialGradient
       id="radialGradient9"
       r="60"
       gradientUnits="userSpaceOnUse">
      <stop
         offset="0"
         stop-color="#9a9a9a"
         id="stop7" />
      <stop
         offset="0.70"
         stop-color="#bababa"
         id="stop8" />
      <stop
         offset="0.95"
         stop-color="#fff"
         id="stop9" />
    </radialGradient>
    <radialGradient
       id="radialGradient12"
       r="60"
       gradientUnits="userSpaceOnUse">
      <stop
         offset="0"
         stop-color="#9a9a9a"
         id="stop10" />
      <stop
         offset="0.70"
         stop-color="#bababa"
         id="stop11" />
      <stop
         offset="0.95"
         stop-color="#fff"
         id="stop12" />
    </radialGradient>
    <radialGradient
       id="radialGradient15"
       r="60"
       gradientUnits="userSpaceOnUse">
      <stop
         offset="0"
         stop-color="#9a9a9a"
         id="stop13" />
      <stop
         offset="0.70"
         stop-color="#bababa"
         id="stop14" />
      <stop
         offset="0.95"
         stop-color="#fff"
         id="stop15" />
    </radialGradient>
  </defs>
  <sodipodi:namedview
     id="namedview12"
     pagecolor="#505050"
     bordercolor="#ffffff"
     borderopacity="1"
     inkscape:pageshadow="0"
     inkscape:pageopacity="0"
     inkscape:pagecheckerboard="1"
     showgrid="true"
     width="137px"
     inkscape:current-layer="g139"
     showguides="true"
     inkscape:guide-bbox="true"
     inkscape:showpageshadow="0"
     inkscape:deskcolor="#d1d1d1">
    <inkscape:grid
       type="xygrid"
       id="grid5602"
       originx="0"
       originy="0"
       spacingy="1"
       spacingx="1"
       units="px"
       visible="true" />
    <sodipodi:guide
       position="60,57"
       orientation="0,-1"
       id="guide140"
       inkscape:locked="false" />
  </sodipodi:namedview>
  <g
     id="g139"
     transform="matrix(3.0896103,0,0,3.0896103,1.3507562,-2.4922591)"
     style="stroke-width:0.323666">
    <path
       d="m 80.806822,10.679533 0.103342,3.203668 c 0,0.01723 0.0055,0.06028 0.01723,0.12918 0.01723,0.06316 0.03159,0.103344 0.04303,0.120568 0,0.0057 0.003,0.01723 0.0086,0.03445 0.0115,0.01148 0.02295,0.01723 0.03445,0.01723 0.0574,0 0.106215,-0.01148 0.146407,-0.03445 0.04017,-0.02871 0.06026,-0.07177 0.06026,-0.12918 0,-0.430601 -0.0115,-0.85546 -0.03445,-1.274578 -0.01723,-0.419118 -0.02581,-0.843977 -0.02581,-1.274577 v -0.180856 -0.258361 c 0.0055,-0.0976 0.0086,-0.186593 0.0086,-0.266972 v -0.180854 c 0,-0.02297 0.01723,-0.04019 0.05168,-0.05167 h 0.02581 c 0.04017,0 0.089,0.02871 0.146406,0.08612 0.0574,0.05741 0.111956,0.123439 0.163627,0.198077 0.0574,0.0689 0.106215,0.140662 0.146406,0.215299 0.04017,0.0689 0.06315,0.120568 0.0689,0.155017 l 0.103343,0.81814 c 0,0.0057 0.0115,0.02297 0.03445,0.05167 0.02873,0.02297 0.05168,0.04019 0.06889,0.05167 h 0.02587 c 0.04017,0 0.07177,-0.02009 0.09474,-0.06028 0.02873,-0.04019 0.04882,-0.08612 0.06026,-0.137792 0.0115,-0.05167 0.01723,-0.103344 0.01723,-0.155016 0.0055,-0.05167 0.0086,-0.09186 0.0086,-0.120568 0,-0.275584 -0.05454,-0.510979 -0.163626,-0.706185 -0.103348,-0.195203 -0.255489,-0.378926 -0.45644,-0.551167 v -0.07751 h 1.016222 l 0.103343,-0.0689 -0.0086,-0.01722 c -0.0055,-0.01722 -0.01436,-0.03445 -0.02587,-0.05167 -0.0115,-0.02297 -0.02295,-0.04306 -0.03445,-0.06028 -0.0115,-0.01722 -0.02295,-0.02584 -0.03445,-0.02584 h -3.238119 c -0.02873,0 -0.04596,0.01435 -0.05168,0.04306 v 0.06028 c 0,0.02871 0.003,0.05741 0.0086,0.08612 0.0115,0.02297 0.04017,0.03445 0.08612,0.03445 H 80.3589 l 0.146401,0.07751 c -0.0574,0.149275 -0.120568,0.284196 -0.189459,0.404764 -0.06316,0.114827 -0.123441,0.229654 -0.180852,0.344481 -0.05168,0.109085 -0.09474,0.229653 -0.129181,0.361704 -0.03445,0.126309 -0.05168,0.275584 -0.05168,0.447825 0,0.04019 0.01436,0.07177 0.04303,0.09473 0.02873,0.01723 0.06315,0.02584 0.103342,0.02584 h 0.05168 c 0.01723,-0.07464 0.04303,-0.180852 0.07751,-0.318645 0.04017,-0.137792 0.08612,-0.278455 0.137794,-0.421988 0.0574,-0.143533 0.117695,-0.275584 0.180846,-0.396153 0.0689,-0.120568 0.140667,-0.200946 0.215304,-0.241136 h 0.01723 z M 80.496789,9.3188358 c 6e-6,0.08612 0.0055,0.1693696 0.01723,0.2497486 0.0115,0.080379 0.03445,0.1521453 0.0689,0.2153 0.03445,0.057414 0.08325,0.1062148 0.146406,0.1464042 0.06315,0.034448 0.143534,0.051672 0.241137,0.051672 0.09186,0 0.160753,-0.011483 0.206684,-0.034448 0.05168,-0.022966 0.114829,-0.063155 0.189465,-0.1205681 l 0.103336,-0.4133764 v -0.025836 -0.017223 c -0.0055,-0.028706 -0.01436,-0.068895 -0.02581,-0.1205678 l -0.03445,-0.1722401 c -0.0115,-0.063155 -0.02295,-0.1176977 -0.03445,-0.1636285 -0.0055,-0.051672 -0.0086,-0.08612 -0.0086,-0.1033439 -0.0115,-0.040189 -0.02581,-0.106215 -0.04303,-0.1980762 -0.01722,-0.091862 -0.04017,-0.1837229 -0.0689,-0.2755846 -0.02295,-0.091862 -0.0574,-0.1722401 -0.103342,-0.2411359 -0.04596,-0.068896 -0.106215,-0.1033444 -0.180852,-0.1033444 -0.02295,0 -0.04596,0.00286 -0.0689,0.00861 -0.01723,0.00575 -0.02873,0.022966 -0.03445,0.051672 -0.0115,0.017222 -0.03159,0.054542 -0.06026,0.111956 -0.02295,0.057413 -0.04882,0.1205682 -0.07751,0.1894645 -0.02873,0.063155 -0.05454,0.1234388 -0.07751,0.1808523 -0.02295,0.057413 -0.03731,0.097602 -0.04303,0.1205678 -0.0055,0.011483 -0.0115,0.034445 -0.01723,0.068896 0,0.03445 -0.003,0.071766 -0.0086,0.1119561 0,0.040189 -0.003,0.077508 -0.0086,0.111956 -0.0055,0.03445 -0.0115,0.054542 -0.01723,0.060284 0,0.028706 -0.01723,0.0488 -0.05168,0.060284 v 0.043058 c 0,0.028706 -0.003,0.057412 -0.0086,0.08612 v 0.068897 z M 79.47196,9.5083003 c 0.02258,0.017693 -0.05168,0.014353 -0.0689,0.043058 -0.0115,0.022966 -0.02009,0.051672 -0.02587,0.08612 -0.0055,0.028707 -0.0086,0.060284 -0.0086,0.094732 0.0055,0.028707 0.0086,0.04593 0.0086,0.051672 0.03445,0 0.08038,-0.00574 0.137794,-0.017224 0.0574,-0.011483 0.08612,-0.04306 0.08612,-0.094732 0,-0.040189 -0.0115,-0.077508 -0.03445,-0.1119562 -0.02295,-0.034449 -0.126381,-0.07644 -0.09473,-0.051671 z m 2.807512,0.00861 c -0.02873,0 -0.04303,0.020097 -0.04303,0.060284 -0.0055,0.00574 -0.0115,0.028707 -0.01723,0.068896 -0.0055,0.040189 -0.0086,0.066025 -0.0086,0.077508 h 0.215298 c 0,-0.045931 -0.0115,-0.091862 -0.03445,-0.1377922 -0.01723,-0.045931 -0.05454,-0.068896 -0.111955,-0.068896 z m -1.47265,0.060284 V 9.5169138 9.3705096 9.3188377 9.1207615 c 0.0055,-0.074637 0.01437,-0.1492748 0.02581,-0.2239122 0.01723,-0.080379 0.04017,-0.1550163 0.0689,-0.2239121 0.02873,-0.068896 0.06602,-0.1263098 0.111956,-0.1722402 0.08038,0.103344 0.126308,0.2296533 0.137793,0.3789285 0.0115,0.1435332 0.01723,0.2784547 0.01723,0.404764 v 0.1291804 c 0,0.063155 -0.0115,0.1234388 -0.03445,0.1808522 -0.02295,0.057414 -0.07464,0.08612 -0.15502,0.08612 -0.04017,0 -0.07464,-0.00574 -0.103342,-0.017224 -0.02295,-0.011483 -0.04596,-0.040189 -0.0689,-0.08612 z m 7.983328,3.7978947 h 0.0947 c 0.0115,0 0.046,0.03158 0.10334,0.09473 0.0632,0.05741 0.11483,0.111957 0.15502,0.163628 0.0115,0.01723 0.0316,0.04593 0.0603,0.08612 0.0344,0.04019 0.0689,0.08612 0.10335,0.137792 0.0402,0.04593 0.0775,0.09186 0.11195,0.137792 0.0344,0.04019 0.0603,0.0689 0.0775,0.08612 l 0.0517,0.103344 v 0 c 0,0 0.0144,0.0086 0.0259,0.0086 0.0345,0 0.0545,-0.01148 0.0603,-0.03444 0.0115,-0.02297 0.0172,-0.04881 0.0172,-0.07751 0,-0.08038 -0.0345,-0.163629 -0.10335,-0.249748 -0.0689,-0.09187 -0.12056,-0.177986 -0.15501,-0.258365 -0.20669,-0.505237 -0.43634,-0.984639 -0.68896,-1.438204 -0.24688,-0.453567 -0.52533,-0.904262 -0.83537,-1.352086 -0.0574,-0.08612 -0.13204,-0.177982 -0.22391,-0.275584 -0.0919,-0.0976 -0.18659,-0.198077 -0.28419,-0.301421 -0.0976,-0.103344 -0.18947,-0.203817 -0.27559,-0.30142 -0.0804,-0.1033441 -0.13779,-0.1980762 -0.17224,-0.2841963 -0.005,-0.00574 -0.0144,-0.031577 -0.0259,-0.077508 -0.0115,-0.045933 -0.0229,-0.094732 -0.0345,-0.1464042 -0.0115,-0.057414 -0.0229,-0.1090855 -0.0345,-0.1550163 -0.005,-0.045933 -0.009,-0.071767 -0.009,-0.077508 -0.0229,-0.051672 -0.0488,-0.091862 -0.0775,-0.1205682 -0.0287,-0.03445 -0.0574,-0.066025 -0.0861,-0.094732 -0.0287,-0.03445 -0.0574,-0.068896 -0.0861,-0.1033439 -0.0229,-0.040189 -0.043,-0.08612 -0.0603,-0.1377921 -0.0115,-0.03445 -0.0258,-0.083249 -0.043,-0.1464042 -0.0115,-0.068896 -0.0287,-0.1406631 -0.0517,-0.2153004 -0.0172,-0.074637 -0.0402,-0.1464042 -0.0689,-0.2153 -0.0229,-0.074637 -0.0517,-0.1349215 -0.0861,-0.1808523 -0.15502,-0.2009472 -0.333,-0.3272566 -0.53394,-0.3789285 -0.195215,-0.057414 -0.413386,-0.08612 -0.654522,-0.08612 h -0.0775 c -0.04017,0 -0.08038,0.00286 -0.120568,0.00861 h -0.111955 -0.0689 c -0.03494,0 -0.089,0.057415 -0.163633,0.1550158 -0.07464,0.097603 -0.15214,0.2066883 -0.232523,0.3272566 -0.07464,0.1205682 -0.140655,0.2353948 -0.198066,0.3444803 -0.0574,0.1090855 -0.08612,0.1779813 -0.08612,0.2066883 0,0.051672 0.0115,0.094732 0.03445,0.1291799 0.02295,0.028706 0.04882,0.057412 0.07751,0.08612 0.03445,0.028706 0.06315,0.060283 0.08611,0.094732 0.02295,0.028706 0.03445,0.071766 0.03445,0.1291804 0,0.063155 -0.02009,0.1148266 -0.06026,0.1550159 -0.03445,0.03445 -0.07751,0.066025 -0.129181,0.094732 -0.04596,0.028706 -0.08899,0.057412 -0.129175,0.08612 -0.03445,0.028706 -0.05168,0.066024 -0.05168,0.111956 0,0.063155 0.01436,0.097603 0.04303,0.103344 0.03445,0.00575 0.07464,0.00861 0.120568,0.00861 0.08038,0 0.140661,-0.011484 0.180846,-0.03445 0.04017,-0.028706 0.05825,-0.1722402 0.172246,-0.1722402 h 0.551169 c 0.04596,0 0.07464,0.017223 0.08612,0.051672 0.0115,0.03445 0.01722,0.066026 0.01722,0.094732 0,0.097603 -0.0086,0.1923349 -0.02587,0.2841964 -0.01722,0.091861 -0.02581,0.1894642 -0.02581,0.292808 0,0.310033 0.0086,0.614324 0.02581,0.912873 0.02295,0.292809 0.03445,0.594229 0.03445,0.904261 v 0.12918 c 0,0.06316 -0.003,0.129181 -0.0086,0.198076 v 0.1981 0.12918 c -0.0055,0.01723 -0.02009,0.06028 -0.04303,0.12918 -0.01723,0.0689 -0.04303,0.152146 -0.07751,0.249748 -0.03445,0.0976 -0.07176,0.200948 -0.111955,0.310033 -0.04017,0.109085 -0.08038,0.212429 -0.120569,0.310032 -0.04017,0.09186 -0.08038,0.16937 -0.120568,0.232524 -0.03445,0.05741 -0.06315,0.08612 -0.08612,0.08612 h -1.274578 c -0.08038,0 0.02295,0.132051 0.0689,0.155016 0.04596,0.02296 0.109089,0.04019 0.189465,0.05167 0.0574,0.0057 0.14066,0.01435 0.249749,0.02583 0.114828,0.01148 0.226783,0.02297 0.335865,0.03445 0.114829,0.0057 0.218171,0.01435 0.310034,0.02583 0.09186,0.0057 0.149273,0.0086 0.172239,0.0086 0.02873,0 0.106215,0.0029 0.232523,0.0086 h 0.439214 0.637295 0.2239 0.25837 0.32725 c 0.10923,0 0.20382,-0.0086 0.28419,-0.0086 h 0.1378 l 0.10334,-0.09473 -0.10334,-0.12918 h -0.76647 c -0.0632,0 -0.0976,-0.01723 -0.10334,-0.05167 -0.005,-0.04019 -0.009,-0.08038 -0.009,-0.120568 0,-0.08612 0.005,-0.16937 0.0172,-0.249748 0.0115,-0.08038 0.0258,-0.16937 0.043,-0.266973 0.005,-0.0057 0.0115,-0.01435 0.0172,-0.02584 0.0115,-0.01148 0.0216,-0.02584 0.0344,-0.02584 h 0.0258 c 0.0574,0 0.10908,0.02009 0.15501,0.06028 0.0517,0.03445 0.0976,0.07751 0.1378,0.12918 0.0459,0.04593 0.0919,0.08899 0.13778,0.12918 0.046,0.03445 0.0976,0.05167 0.15502,0.05167 0.0172,0 0.0373,-0.0029 0.0603,-0.0086 0.0229,-0.0057 0.0345,-0.02584 0.0345,-0.06028 v -0.809528 c 0,-0.0057 0.005,-0.01435 0.0172,-0.02584 0.0172,-0.01148 0.043,-0.01723 0.043,-0.01723 v 0 c 0,0 0.0115,-0.0086 0.0172,-0.0086 0.0804,0 0.15501,0.03732 0.22391,0.111957 0.0746,0.07464 0.14067,0.169369 0.19808,0.284196 0.0574,0.114827 0.10908,0.238266 0.15501,0.370316 0.0517,0.12631 0.0947,0.246878 0.12918,0.361704 0.0345,0.114827 0.0632,0.209559 0.0861,0.284197 0.0229,0.07464 0.0402,0.111956 0.0517,0.111956 h 1.05928 c 0.0345,0 0.10335,-0.05167 0.10335,-0.05167 v 0 c 0,0 0.009,-0.01435 0.009,-0.02583 0,-0.0057 -0.003,-0.0086 -0.009,-0.0086 v -0.0086 l -0.0517,-0.06028 c -0.0459,-0.0689 -0.10047,-0.160758 -0.16362,-0.275585 -0.0574,-0.120568 -0.0958,-0.424375 -0.0861,-0.327256 z m -1.37792,-0.835365 v -0.01723 l 0.009,-0.0086 c 0.005,-0.01148 0.0201,-0.02297 0.043,-0.03444 0.0287,-0.01723 0.046,-0.02584 0.0517,-0.02584 0.18947,0.02871 0.35597,0.08899 0.4995,0.180852 0.14927,0.09186 0.27271,0.206689 0.37032,0.344481 0.10334,0.132051 0.18085,0.281325 0.23252,0.447824 0.0574,0.166499 0.0861,0.335868 0.0861,0.508108 h -0.62868 c -0.0172,0 -0.0373,-0.02871 -0.0603,-0.08612 -0.0229,-0.06316 -0.046,-0.12918 -0.0689,-0.198076 -0.0172,-0.07464 -0.0345,-0.143533 -0.0517,-0.206688 -0.0115,-0.0689 -0.0201,-0.109086 -0.0259,-0.120568 -0.0115,-0.03445 -0.043,-0.08899 -0.0947,-0.163628 -0.046,-0.07464 -0.0976,-0.152146 -0.15502,-0.232525 -0.0517,-0.08612 -0.10047,-0.163628 -0.1464,-0.232524 -0.0402,-0.07464 -0.0827,-0.172948 -0.0603,-0.155016 z m -2.583605,1.265966 c 0,-0.01723 0.01436,-0.06316 0.04303,-0.137792 0.02873,-0.07464 0.06315,-0.155017 0.103342,-0.241136 0.04017,-0.08612 0.08038,-0.163629 0.120568,-0.232526 0.04017,-0.07464 0.09474,-0.129179 0.09474,-0.129179 v 0 c 0,0 0.0115,-0.0086 0.01723,-0.0086 0.04017,0 0.07464,0.02009 0.103342,0.06028 0.02873,0.04019 0.05454,0.08325 0.07751,0.129179 0.02873,0.04593 0.0574,0.08899 0.08612,0.129181 0.02873,0.04019 0.06602,0.06028 0.111953,0.06028 0.0517,0 0.0919,-0.02297 0.12057,-0.0689 0.0287,-0.04593 0.0545,-0.09473 0.0775,-0.146403 0.023,-0.05741 0.046,-0.109086 0.0689,-0.155017 0.023,-0.04593 0.0545,-0.0689 0.0947,-0.0689 v 0.887037 h -1.059274 c -0.0115,0 -0.02295,-0.0057 -0.03445,-0.01723 -0.0055,-0.01722 -0.01436,-0.02871 -0.02587,-0.03444 z m 0.757855,-2.643888 v -0.01723 c 0.046,0.01148 0.10335,0.0488 0.17224,0.111956 0.0746,0.05741 0.14354,0.132051 0.22391,0.206689 l 0.24114,0.223912 c 0.0861,0.07464 0.16363,0.132051 0.23252,0.17224 0.0345,0.02297 0.0746,0.04306 0.12057,0.06028 0.046,0.01723 0.089,0.03732 0.12918,0.06028 0.046,0.02297 0.0833,0.05167 0.11196,0.08612 0.0287,0.03444 0.043,0.08038 0.043,0.137793 v 0.05167 l -0.10334,0.809529 -0.009,0.0086 h -0.0172 c -0.0172,0 -0.0488,-0.01435 -0.0947,-0.04306 -0.046,-0.03444 -0.0718,-0.05741 -0.0775,-0.0689 -0.0344,-0.01148 -0.0832,-0.03444 -0.1464,-0.0689 -0.0574,-0.03444 -0.10622,-0.06316 -0.14641,-0.08612 -0.0402,-0.02297 -0.0632,-0.03732 -0.0689,-0.04306 l -0.0172,-0.03444 c -0.005,-0.02871 -0.0144,-0.05741 -0.0258,-0.08612 -0.0115,-0.03445 -0.0229,-0.0689 -0.0345,-0.103345 -0.0115,-0.03445 -0.0201,-0.06316 -0.0259,-0.08612 0,-0.0057 -0.005,-0.02871 -0.0172,-0.0689 -0.005,-0.04593 -0.0144,-0.09473 -0.0259,-0.146403 -0.0115,-0.05167 -0.0229,-0.100474 -0.0344,-0.146405 -0.0115,-0.04593 -0.0201,-0.07464 -0.0259,-0.08612 -0.0172,-0.0689 -0.0488,-0.137792 -0.0947,-0.206688 -0.0402,-0.0689 -0.0861,-0.137792 -0.13779,-0.206688 -0.046,-0.0689 -0.0861,-0.137792 -0.12057,-0.206688 -0.0345,-0.07464 -0.110587,-0.178089 -0.0517,-0.223912 z m -0.301421,0.0086 c 0.05168,0 0.109088,0.05454 0.172239,0.163629 0.06316,0.109085 0.123442,0.232524 0.180862,0.370316 0.0631,0.137792 0.11482,0.272713 0.15501,0.404764 0.0402,0.132051 0.0603,0.218171 0.0603,0.25836 0,0.132051 -0.0259,0.246878 -0.0775,0.344481 -0.0517,0.0976 -0.11483,0.200947 -0.18947,0.310032 l -0.0172,0.0086 h -0.02581 c -0.05168,0 -0.109082,-0.03158 -0.172239,-0.09473 -0.0574,-0.06316 -0.08612,-0.120568 -0.08612,-0.17224 z M 85.483137,9.7494365 V 9.6805404 9.4480162 9.3705078 c 0.02295,-0.063154 0.05454,-0.097602 0.09474,-0.103344 0.0402,-0.00575 0.0832,-0.00861 0.12917,-0.00861 0.14928,0 0.30717,0.040189 0.47367,0.1205682 0.17224,0.074637 0.3129,0.1550164 0.42198,0.2411365 l 0.46506,0.4564365 c 0.0841,0.08252 0.18085,0.203818 0.30141,0.353092 0.12632,0.149275 0.25836,0.315774 0.39616,0.499497 0.14353,0.177981 0.2842,0.367446 0.42198,0.568392 0.13779,0.200948 0.26123,0.396153 0.37031,0.585617 0.11483,0.189464 0.20669,0.367446 0.27559,0.533945 0.0746,0.160757 0.11196,0.295678 0.11196,0.404764 h -0.10335 c -0.22391,-0.155019 -0.4507,-0.304293 -0.68035,-0.447827 -0.22391,-0.149274 -0.45644,-0.289937 -0.69757,-0.421988 -0.29855,-0.160758 -0.57126,-0.30142 -0.81814,-0.421988 -0.24114,-0.12631 -0.44783,-0.269843 -0.62007,-0.430601 -0.17224,-0.166499 -0.30716,-0.367446 -0.40476,-0.602841 -0.09186,-0.241136 -0.137793,-0.556909 -0.137793,-0.9473205 z m 0,1.1884575 c 0.02295,0.0057 0.03445,0.01435 0.03445,0.02584 0,0.01148 -0.0086,0.02009 -0.02581,0.02584 -0.01723,0.0057 -0.02587,-0.0029 -0.02587,-0.02584 0,-0.01148 0.0043,-0.01316 0.0086,-0.01722 z m -0.04303,-0.155016 c 0.01723,0.01148 0.02587,0.02009 0.02587,0.02584 0,0.01148 -0.0086,0.02297 -0.02587,0.03445 -0.01723,0.0057 -0.02587,-0.0057 -0.02587,-0.03445 0,-0.02297 0.0086,-0.03158 0.02587,-0.02584 z m -0.27561,-0.8095293 h 0.06889 c 0.01722,0.080379 0.04017,0.1636283 0.0689,0.2497483 0.02873,0.08038 0.04303,0.160758 0.04303,0.241136 0,0.0057 -0.0086,0.01629 -0.0086,0.03445 v 0.03445 c -0.04017,-0.01722 -0.07176,-0.0488 -0.09473,-0.09473 -0.02295,-0.05167 -0.04017,-0.106214 -0.05168,-0.163628 -0.0115,-0.05741 -0.02009,-0.111956 -0.02581,-0.163628 z m 0.31864,-1.067889 c -0.05168,-0.011484 -0.08038,-0.034445 -0.08612,-0.068896 -0.0055,-0.040189 -0.0086,-0.080379 -0.0086,-0.1205682 0,-0.080378 0.01436,-0.1492748 0.04303,-0.2066883 0.03445,-0.057413 0.05168,-0.1263094 0.05168,-0.2066878 0,-0.1205683 -0.04303,-0.2009468 -0.129181,-0.2411364 -0.08612,-0.040189 -0.180852,-0.066025 -0.284194,-0.077508 -0.0976,-0.011483 -0.189465,-0.020092 -0.275588,-0.025836 -0.08612,-0.011483 -0.129181,-0.0488 -0.129181,-0.1119561 0,-0.03445 0.02295,-0.063155 0.0689,-0.08612 0.05168,-0.022966 0.109088,-0.037319 0.172239,-0.043058 0.0689,-0.011483 0.132054,-0.017223 0.189465,-0.017223 0.06316,-0.00575 0.109088,-0.00861 0.137794,-0.00861 0.212431,0 0.373179,0.028706 0.482269,0.08612 0.10909,0.057414 0.19233,0.1349215 0.24975,0.2325243 0.0632,0.097603 0.11483,0.2124299 0.15501,0.3444803 0.0402,0.1263094 0.10048,0.2612309 0.18086,0.4047645 0,0.011483 0.0115,0.037319 0.0344,0.077508 0.0287,0.040189 0.0574,0.08325 0.0861,0.1291804 0.0287,0.045933 0.0574,0.088991 0.0861,0.1291799 0.0287,0.040189 0.046,0.063155 0.0517,0.068896 0.005,0.011483 0.0115,0.031575 0.0172,0.060284 0.0115,0.022966 0.0201,0.037319 0.0259,0.043058 -0.005,0 -0.0144,0.00286 -0.0259,0.00861 h -0.0172 c -0.0344,0 -0.0775,-0.011483 -0.12918,-0.03445 -0.0517,-0.022966 -0.10621,-0.048802 -0.16362,-0.077508 -0.0517,-0.03445 -0.10335,-0.066026 -0.15502,-0.094732 -0.046,-0.028706 -0.0861,-0.0488 -0.12056,-0.060284 -0.0172,0 -0.0488,-0.00286 -0.0947,-0.00861 -0.046,-0.011483 -0.0976,-0.022966 -0.15502,-0.03445 l -0.15502,-0.03445 C 85.54049,8.9198103 85.50607,8.9112013 85.483111,8.9054573 Z M 84.268843,8.5868153 v -0.017223 l 0.0086,-0.00861 c 0.01674,-0.016736 0.02009,-0.057415 0.04303,-0.1033444 0.02873,-0.051672 0.04882,-0.08612 0.06026,-0.1033439 0.0055,0.011483 0.02873,0.037319 0.0689,0.077508 0.04017,0.040189 0.06602,0.063155 0.07751,0.068896 0.0055,0.011483 0.02009,0.011483 0.04303,0 0.02873,-0.017223 0.04882,-0.025836 0.06026,-0.025836 V 8.3026191 h -0.172239 c 0,-0.051672 0.0055,-0.097603 0.01723,-0.1377926 0.0115,-0.045933 0.04595,-0.068896 0.103342,-0.068896 0.08038,0 0.169372,0.017223 0.266975,0.051672 0.103342,0.028706 0.200945,0.045928 0.292807,0.051672 0.0115,0.00575 0.02873,0.022966 0.05168,0.051672 0.02295,0.022966 0.04303,0.038835 0.04303,0.051672 v 0.00861 c 0.0055,0.00575 0.0086,0.011483 0.0086,0.017223 0,0.028706 -0.0086,0.051671 -0.02581,0.068896 -0.01723,0.017223 -0.03731,0.03445 -0.06026,0.051672 l -0.05168,0.051672 c -0.01723,0.017223 -0.02587,0.043058 -0.02587,0.077508 0,0.051672 0.0043,0.099828 0.02587,0.1377921 l 0.0689,0.1205682 c 0.02222,0.038934 0.05454,0.071767 0.07751,0.1119561 0.02295,0.040189 0.03445,0.08612 0.03445,0.137792 0,0.091862 -0.04017,0.1377926 -0.120568,0.1377926 h -0.05168 c -0.01722,0 -0.02179,-0.00455 -0.02581,-0.00861 L 85.0094,9.1379835 c -0.04017,-0.045933 -0.06602,-0.068896 -0.07751,-0.068896 -0.0055,-0.00575 -0.02295,-0.00861 -0.05168,-0.00861 -0.02873,0 -0.06026,0.00286 -0.09473,0.00861 h -0.09474 -0.06026 c -0.02928,0 -0.06315,-0.028706 -0.103343,-0.068896 -0.04017,-0.045933 -0.08038,-0.094732 -0.120568,-0.1464042 -0.03445,-0.057413 -0.06602,-0.1119561 -0.09474,-0.1636281 -0.02873,-0.051672 -0.04303,-0.08612 -0.04303,-0.1033439 z m 6.863777,4.7882767 0.75786,0.05167 c 0.0402,0.0057 0.0689,0.0488 0.0861,0.12918 0.0172,0.08038 0.0402,0.166499 0.0689,0.258361 0.0287,0.09186 0.0718,0.177981 0.12918,0.25836 0.0574,0.07464 0.14641,0.111956 0.26698,0.111956 h 1.73101 v -0.611453 l 0.10334,-0.04306 c 0.0345,-0.0057 0.0947,-0.01435 0.18085,-0.02584 0.0861,-0.01723 0.17799,-0.03444 0.27559,-0.05167 0.0976,-0.01723 0.18947,-0.03158 0.27558,-0.04306 0.0861,-0.01723 0.14641,-0.02871 0.18086,-0.03445 0.0287,-0.0057 0.0718,-0.01148 0.12918,-0.01723 0.0574,-0.01149 0.11195,-0.02584 0.16362,-0.04306 0.0574,-0.01723 0.10622,-0.04306 0.14641,-0.07751 0.046,-0.03444 0.0689,-0.08325 0.0689,-0.146404 0,-0.12631 -0.0201,-0.25836 -0.0603,-0.396152 -0.0344,-0.137793 -0.066,-0.266973 -0.0947,-0.387541 -0.0115,-0.04019 -0.0316,-0.114827 -0.0603,-0.223912 -0.0229,-0.109086 -0.0488,-0.223913 -0.0775,-0.344481 -0.0229,-0.126309 -0.046,-0.244006 -0.0689,-0.353092 -0.0229,-0.114827 -0.0373,-0.195205 -0.043,-0.241136 -0.046,-0.05741 -0.0718,-0.114827 -0.0775,-0.172241 0,-0.06316 -0.009,-0.126309 -0.0259,-0.189464 -0.0115,-0.01722 -0.0287,-0.05167 -0.0517,-0.103344 -0.0172,-0.05741 -0.0373,-0.114827 -0.0603,-0.17224 -0.0172,-0.06316 -0.0373,-0.120568 -0.0603,-0.17224 -0.0172,-0.05167 -0.0287,-0.08612 -0.0345,-0.103344 C 94.89018,10.013527 94.77252,9.81258 94.62899,9.6288572 94.48546,9.4451341 94.32183,9.2901183 94.13811,9.1638089 93.95438,9.031758 93.75344,8.9312846 93.53527,8.8623884 93.32284,8.7877514 93.09605,8.7504323 92.85492,8.7504323 h -0.0947 c -0.046,0 -0.0919,0.00286 -0.13778,0.00861 h -0.1378 -0.0861 c -0.22391,0.068896 -0.4105,0.1406626 -0.55978,0.2153 -0.14353,0.074637 -0.26985,0.1664986 -0.37893,0.2755846 -0.10909,0.1033438 -0.21243,0.2296532 -0.31003,0.3789281 -0.0919,0.1492748 -0.19808,0.330127 -0.31865,0.542557 -0.0402,0.06316 -0.0976,0.163628 -0.17224,0.30142 -0.0746,0.137792 -0.14927,0.284196 -0.22391,0.439212 -0.0689,0.155017 -0.13205,0.307162 -0.18946,0.456437 -0.0517,0.143533 -0.0775,0.252619 -0.0775,0.327257 0,0.114826 0.0345,0.238265 0.10335,0.370316 0.0689,0.126309 0.14352,0.25836 0.22391,0.396152 0.0861,0.132051 0.16362,0.266972 0.23252,0.404764 0.0689,0.132051 0.10334,0.261231 0.10334,0.38754 v 0.120568 c -0.0115,0.02297 -0.0287,0.06028 -0.0517,0.111957 -0.0172,0.05167 -0.0402,0.106215 -0.0689,0.163628 -0.023,0.05741 -0.0488,0.114826 -0.0775,0.17224 -0.023,0.05167 -0.0603,0.08325 -0.0603,0.111956 v 0.17224 c 0,0.12631 0.21529,-0.01148 0.26696,-0.03444 0.0517,-0.02871 0.089,-0.0689 0.11196,-0.120568 0.023,-0.05167 0.0402,-0.117698 0.0517,-0.198077 0.0115,-0.08038 0.0373,-0.17511 0.0775,-0.284196 0.005,-0.01148 0.0144,-0.02871 0.0259,-0.05167 0.0115,-0.0287 0.0218,-0.039 0.0259,-0.04306 z m 1.26597,0.508109 c -0.0243,-0.03348 -0.0718,-0.07464 -0.11196,-0.155016 -0.0344,-0.08038 -0.0689,-0.163628 -0.10334,-0.249749 -0.0345,-0.08612 -0.0689,-0.163628 -0.10335,-0.232524 -0.0287,-0.0689 -0.0574,-0.103344 -0.0861,-0.103344 H 91.1757 c -0.005,0 -0.0459,-0.0689 -0.12057,-0.206688 -0.0746,-0.137792 -0.15788,-0.292808 -0.24974,-0.465049 -0.0861,-0.177981 -0.1665,-0.34448 -0.24114,-0.499496 -0.0689,-0.160758 -0.10334,-0.264102 -0.10334,-0.310033 0,-0.06315 0.0201,-0.155016 0.0603,-0.275584 0.0459,-0.120568 0.10047,-0.244007 0.16362,-0.370316 0.0632,-0.12631 0.12918,-0.238266 0.19808,-0.335868 0.0746,-0.103345 0.14066,-0.16937 0.19807,-0.198077 0.005,0 0.046,-0.0057 0.12057,-0.01722 0.0804,-0.01148 0.14067,-0.02297 0.18085,-0.03445 h 0.0775 c 0.14354,0 0.26984,0.04019 0.37893,0.120568 0.11483,0.08038 0.21243,0.16937 0.29281,0.266973 0.0804,0.09186 0.14641,0.177981 0.19808,0.25836 0.0517,0.08038 0.089,0.120568 0.11195,0.120568 0.0976,0 0.19234,-0.01723 0.2842,-0.05167 0.0976,-0.04019 0.1952,-0.06028 0.29281,-0.06028 0.0287,0 0.0488,0.01148 0.0603,0.03444 0.0172,0.02297 0.0259,0.05167 0.0259,0.08612 0.005,0.02871 0.009,0.06028 0.009,0.09473 v 0.07751 c 0,0.114827 -0.0316,0.209559 -0.0947,0.284197 -0.0632,0.07464 -0.13492,0.140662 -0.2153,0.198076 -0.0746,0.05167 -0.14353,0.100473 -0.20669,0.146404 -0.0632,0.04019 -0.0947,0.08325 -0.0947,0.12918 v 0.01723 c 0.0344,0.114827 0.066,0.241136 0.0947,0.378928 0.0344,0.132051 0.0718,0.266972 0.11195,0.404764 0.0402,0.132051 0.0833,0.264102 0.12919,0.396154 0.0517,0.126309 0.10908,0.241136 0.17224,0.344479 0.0115,0 0.034,0.0086 0.0689,0.0086 h 0.0775 c 0.10334,0 0.20669,-0.0086 0.31004,-0.02583 0.10334,-0.02297 0.20668,-0.03445 0.31002,-0.03445 0.0976,0 0.14641,0.02871 0.14641,0.08612 0.005,0.05167 0.11195,0.232524 0.009,0.232524 h -0.35309 c -0.18946,0 -0.39041,-0.0029 -0.60284,-0.0086 -0.21243,-0.0057 -0.40249,-0.04585 -0.57701,-0.05167 z m 0.49949,-1.619058 c -0.0689,-0.0017 0.0229,-0.13205 0.0689,-0.189464 0.0517,-0.06316 0.10621,-0.12918 0.16363,-0.198076 0.0574,-0.0689 0.10908,-0.146404 0.15501,-0.232525 0.0517,-0.08612 0.0775,-0.195205 0.0775,-0.327256 0,-0.04019 -0.003,-0.08899 -0.009,-0.146404 0,-0.06316 -0.005,-0.123438 -0.0172,-0.180852 -0.0115,-0.05741 -0.0345,-0.106215 -0.0689,-0.146404 -0.0287,-0.04019 -0.0718,-0.06028 -0.12918,-0.06028 h -0.0259 l -0.36171,0.06028 h -0.0775 -0.0689 c -0.11476,-0.12631 -0.22385,-0.232524 -0.32719,-0.318645 -0.0976,-0.08612 -0.20095,-0.155016 -0.31003,-0.206688 -0.10909,-0.05167 -0.22966,-0.08899 -0.36171,-0.111956 -0.12631,-0.02297 -0.43921,0.132051 -0.43921,-0.03445 v -0.01722 c 0,-0.0081 0.009,-0.01435 0.009,-0.02584 C 91.36516,9.7609172 91.59194,9.47385 91.85604,9.2671622 92.12015,9.0604739 92.46462,8.95713 92.88948,8.95713 c 0.27559,0 0.51672,0.051672 0.72341,0.1550159 0.21243,0.1033439 0.39903,0.2411364 0.55978,0.4133766 0.16076,0.1664986 0.29855,0.3617042 0.41338,0.5856165 0.11482,0.223912 0.21243,0.456436 0.29281,0.697573 0.0861,0.241136 0.15501,0.482273 0.20668,0.723409 0.0574,0.241136 0.0994,0.466487 0.14641,0.671737 l 0.16363,0.714796 v 0.02584 c 0,0.04593 -0.0287,0.07751 -0.0861,0.09473 -0.0574,0.01723 -0.0976,0.02584 -0.12056,0.02584 l -1.87742,0.310032 h -0.0603 c -0.0517,0 -0.10047,-0.05167 -0.1464,-0.155016 -0.0402,-0.109085 -0.0775,-0.229653 -0.11196,-0.361704 -0.0287,-0.132051 -0.0517,-0.25549 -0.0689,-0.370317 -0.0172,-0.120568 0.003,-0.223195 -0.0259,-0.223912 z m -2.13577,-0.904261 v 0.02584 l 0.009,0.0086 0.40476,0.155016 c 0.0458,0.01754 0.0746,0.01148 0.0861,-0.01723 0.0172,-0.02871 0.0259,-0.05454 0.0259,-0.07751 0,-0.08612 -0.043,-0.143534 -0.12918,-0.17224 -0.0861,-0.02871 -0.16076,-0.04306 -0.22391,-0.04306 -0.046,0 -0.0861,0.0057 -0.12057,0.01723 -0.0345,0.0057 0.01,0.117695 -0.0517,0.103344 z"
       id="text2"
       style="font-size:18.6667px;line-height:1.25;font-family:Yiroglyphics;-inkscape-font-specification:'Yiroglyphics, Normal';letter-spacing:0px;word-spacing:0px;white-space:pre;fill:#000000;stroke-width:0.10476"
       aria-label="iujfbk     newsb"
       sodipodi:nodetypes="cccccscscsccsscssccccccscscscccccccssscscscccccscscccccccssccscccccccccscssccccscccsccsccssccccsssssccscccsccccccsccssssccccsccccccsscsccccssccsccccccscccccsscccscsscccssccscsccssssscssccccssccscsccccsccccccscccscsscccscccsssscssscscssssssscccccscsccccccscccccccscssccssscssscsccscccccccccscsscccscccsccccccscccccsccsccssccscscsccscscccccscccccccccscssccccsccscccscccscccccscssccscccssccccssccccsscccccccccccsssccccccscccccsscssccsssscccscccccsccccssssccccscccccsccccccccccccsccsscccccccsccscccscccccccssccscscsscssccscsccccsccsscsccsssccsccccccscsccssssscscscscscccccsccccssccsccccssccscccsscccscssscscccsc" />
    <path
       style="font-size:18.6667px;line-height:1.25;font-family:'AGaramond RegularSC';-inkscape-font-specification:'AGaramond RegularSC, Normal';letter-spacing:0px;word-spacing:0px;white-space:pre;fill:#000000;stroke-width:0.052324"
       d="m 34.614364,5.7988336 q -2.30464,0 -3.815567,1.1284134 -1.606554,1.1379761 -1.644806,3.528682 0,1.176228 0.545081,2.036882 0.50683,0.87978 1.310107,1.443987 0.392076,0.23907 0.803278,0.392075 0.411201,0.181694 0.841528,0.296448 0.889343,0.219945 1.807374,0.219945 0.525956,0 0.937157,-0.05738 0.392076,-0.06694 0.707649,-0.124317 0.602458,-0.153005 0.994534,-0.229508 0.430327,-0.688523 0.650272,-2.122947 -0.0765,-0.153005 -0.239071,-0.153005 -0.172131,0 -0.267759,0.13388 -0.06694,0.181693 -0.239071,0.516392 -0.191256,0.334699 -0.545081,0.659835 -0.315573,0.334699 -0.822402,0.554644 -0.516393,0.248633 -1.214479,0.248633 -1.434424,0 -2.448083,-1.071036 -1.061474,-1.061473 -1.0806,-3.040978 0.01913,-1.9986307 1.061474,-2.9166618 0.975408,-0.8797799 2.285515,-0.8797799 1.290981,0.019126 1.922128,0.5642067 0.621584,0.5928952 0.803277,1.4344237 0.13388,0.1147539 0.296448,0.076503 0.153005,0 0.210382,-0.1147539 -0.172131,-1.3579211 -0.172131,-2.1611984 -0.162568,0 -0.927594,-0.1912565 -0.755463,-0.1530054 -1.75956,-0.1721311 z m 8.654357,5.7376954 q 0.334699,0 0.468579,0.05738 0.10519,0.0765 0.200818,0.411201 l 0.468579,1.271856 q 0.200819,0.430327 0.181694,0.583332 -0.06694,0.162568 -0.43989,0.219945 l -0.382513,0.05738 q -0.124317,0.0765 -0.105191,0.239071 0,0.172131 0.143442,0.248633 0.717212,-0.05738 1.75956,-0.05738 0.937157,0 1.62568,0.05738 0.153006,-0.03825 0.172131,-0.229508 0.03825,-0.181694 -0.114754,-0.258196 l -0.315573,-0.05738 q -0.50683,-0.09563 -0.717212,-0.353825 -0.219945,-0.23907 -0.392076,-0.688523 L 44.052873,8.3616707 Q 43.718174,7.4436396 43.507791,6.7742418 43.268721,6.1048441 43.211344,5.9518389 43.153965,5.779708 42.895771,5.8562106 42.685389,6.3056634 42.073368,6.602111 42.035115,7.089815 41.566539,8.2469168 l -1.874314,4.5040902 q -0.277322,0.678961 -0.516393,0.918031 -0.248633,0.26776 -0.698086,0.372951 l -0.449453,0.09563 q -0.105191,0.0765 -0.08606,0.23907 0,0.172131 0.124317,0.248634 0.54508,-0.05738 1.367483,-0.05738 0.822403,0 1.549178,0.05738 0.153006,-0.03825 0.172131,-0.229508 0,-0.181694 -0.114754,-0.258196 l -0.525955,-0.09563 q -0.258197,-0.03825 -0.315574,-0.20082 -0.05738,-0.133879 0.09563,-0.583332 l 0.449452,-1.25273 q 0.09563,-0.334699 0.239071,-0.411201 0.133879,-0.05738 0.430327,-0.05738 z M 41.60479,10.905382 q -0.306011,0 -0.353825,-0.09563 -0.05738,-0.09563 0.105191,-0.468579 l 0.698086,-1.7499965 q 0.258196,-0.5833324 0.315574,-0.659835 h 0.03825 q 0.0765,0.076503 0.296448,0.7076491 l 0.602458,1.6639314 q 0.181693,0.392076 0.124317,0.50683 -0.07651,0.09563 -0.468579,0.09563 z m 7.621571,1.606555 q 0,0.956282 -0.13388,1.214478 -0.162568,0.277322 -0.784152,0.353825 l -0.372949,0.05738 q -0.07651,0.0765 -0.07651,0.23907 0,0.172131 0.114753,0.248634 1.099728,-0.05738 1.998634,-0.05738 0.898906,0 1.99863,0.05738 0.114754,-0.0765 0.153006,-0.248634 0,-0.162568 -0.114755,-0.23907 l -0.372949,-0.05738 q -0.612021,-0.0765 -0.765026,-0.353825 -0.172131,-0.258196 -0.153006,-1.214478 V 8.1226 q -0.01913,-0.975408 0.153006,-1.2527299 0.153005,-0.2486335 0.765026,-0.3155733 l 0.372949,-0.057377 q 0.114755,-0.1147539 0.114755,-0.2677591 -0.03825,-0.1816937 -0.153006,-0.219945 -1.099724,0.057377 -1.99863,0.057377 -0.898906,0 -1.998631,-0.057377 -0.114753,0.038251 -0.114753,0.219945 0,0.1530052 0.07651,0.2677591 l 0.372949,0.057377 q 0.621584,0.06694 0.784152,0.3155733 0.13388,0.2773219 0.13388,1.2527299 z m 5.603816,0 q 0,0.956282 -0.13388,1.214478 -0.162568,0.258197 -0.784152,0.353825 l -0.296447,0.05738 q -0.114753,0.0765 -0.09563,0.23907 0,0.172131 0.133879,0.248634 1.004101,-0.05738 1.922132,-0.05738 0.87978,0 2.075133,0.05738 0.114754,-0.0765 0.153005,-0.248634 0,-0.162568 -0.114754,-0.23907 L 57.24001,14.08024 q -0.61202,-0.05738 -0.765026,-0.334699 -0.172131,-0.277322 -0.153005,-1.233604 v -1.38661 q 0,-0.200819 0.09563,-0.277322 0.07651,-0.03825 0.449454,-0.03825 0.239071,0 0.449452,0.05738 0.219946,0.0765 0.334699,0.258196 0.669398,1.051911 1.424861,2.113384 1.137977,1.501364 2.74453,1.463112 0.564208,0 0.8224,-0.09563 0.11476,-0.133879 0,-0.315573 -0.487701,0 -1.032781,-0.411202 -0.478142,-0.411201 -1.099725,-1.147539 -0.650273,-0.765025 -1.38661,-1.979504 -0.10519,-0.162568 0,-0.296448 0.621584,-0.200819 1.166664,-0.6885232 0.554645,-0.4877041 0.57377,-1.4057353 0,-0.7841516 -0.315572,-1.25273 -0.334699,-0.4685784 -0.879781,-0.707649 -0.525956,-0.2581963 -1.214479,-0.3346989 -0.688523,-0.057377 -1.396172,-0.057377 -1.616118,0 -3.241798,0.1147539 -0.143442,0.06694 -0.124316,0.2390706 0,0.1912565 0.124316,0.2581963 l 0.545081,0.076503 q 0.334699,0.019126 0.411202,0.3538246 0.05738,0.3442617 0.05738,1.3101069 z m 1.4918,-5.3838707 q -0.01913,-0.3729501 0.172131,-0.4685784 0.181694,-0.086065 0.688523,-0.086065 1.032785,0.028689 1.568304,0.5546438 0.487704,0.5259554 0.487704,1.2909813 -0.01913,1.903002 -1.941253,1.864751 -0.669398,0.01913 -0.822404,-0.08606 -0.172131,-0.0765 -0.153005,-0.4112016 z M 67.634795,5.7988336 q -2.16119,0.019126 -3.4713,1.3101071 -1.34836,1.2718556 -1.36749,3.2896113 0,1.874314 1.29099,3.127044 1.25273,1.281419 3.5478,1.31967 2.13251,-0.01913 3.4235,-1.31967 1.3101,-1.25273 1.32923,-3.241798 0,-1.8647504 -1.17623,-3.1557317 -1.19535,-1.310107 -3.5765,-1.3292327 z m -0.14344,0.5642067 q 1.62568,0.038251 2.40983,1.3101071 0.7459,1.2336043 0.7459,2.8975356 -0.0191,1.979505 -0.87978,2.840159 -0.86065,0.87978 -2.03688,0.860654 -1.68306,-0.03825 -2.42895,-1.348358 -0.78416,-1.271856 -0.76503,-2.840159 0.0191,-2.0560072 0.95628,-2.9166614 0.45902,-0.4303271 0.96585,-0.6311464 0.50683,-0.1721309 1.03278,-0.1721309 z"
       id="text1"
       aria-label="cairo" />
    <path
       d="m 7.9365205,14.045952 c 0,0.03918 0.01679,0.06436 0.05037,0.07556 0.03918,0.0055 0.07556,0.0084 0.109136,0.0084 0.01679,0 0.03358,-0.0028 0.05037,-0.0084 0.01679,-0.0055 0.03077,-0.02239 0.04198,-0.05037 0.11753,0 0.246253,0.0028 0.38617,0.0084 h 0.43654 c 0.15111,0 0.299422,-0.0028 0.444935,-0.0084 0.145514,-0.01119 0.282633,-0.02798 0.411356,-0.05037 0.05037,-0.02239 0.08675,-0.103539 0.109135,-0.243455 0.02239,-0.145514 0.039181,-0.310615 0.05037,-0.495305 0.01679,-0.18469 0.03078,-0.36938 0.04198,-0.554071 0.01119,-0.18469 0.03357,-0.330203 0.06716,-0.43654 V 9.9240066 c 0.08395,-0.027981 0.13432,-0.07835 0.151111,-0.15111 0.02239,-0.07835 0.03358,-0.1567062 0.03358,-0.2350598 0,-0.07835 -0.0196,-0.1539089 -0.05876,-0.2266654 -0.03918,-0.07835 -0.109134,-0.1175303 -0.209874,-0.1175303 0,0.061563 0.01119,0.1147322 0.03358,0.1595052 0.02239,0.044776 0.03358,0.095144 0.03358,0.15111 v 0.025189 l -0.100745,0.1930849 c -0.0055,0.00562 -0.01399,0.00839 -0.02519,0.00839 -0.02239,0 -0.03918,-0.011194 -0.05037,-0.033582 -0.0055,-0.022388 -0.01399,-0.044776 -0.02519,-0.067164 -0.0056,-0.027981 -0.0168,-0.05317 -0.03358,-0.075558 -0.01119,-0.022388 -0.03358,-0.033582 -0.06716,-0.033582 -0.04477,0 -0.07276,0.019588 -0.08395,0.058763 -0.0055,0.039175 -0.0084,0.07835 -0.0084,0.1175303 v 0.025189 l 0.10074,0.20148 c 0,0.050369 0.0028,0.1371185 0.0084,0.2602455 0.0055,0.11753 0.0084,0.246254 0.0084,0.38617 0.0056,0.13432 0.01119,0.263044 0.01679,0.38617 0.0055,0.117531 0.0084,0.198683 0.0084,0.243456 v 0.125925 0.125925 c -0.0055,0.08395 -0.01119,0.190287 -0.01679,0.31901 -0.0055,0.128723 -0.01119,0.254649 -0.01679,0.377775 0,0.123127 -0.0028,0.229464 -0.0084,0.31901 v 0.125926 l -0.05876,0.09234 c -0.01119,-0.01119 -0.04477,-0.05037 -0.10074,-0.117531 -0.05037,-0.06716 -0.08115,-0.111933 -0.09234,-0.134319 -0.0056,-0.0055 -0.02519,-0.02239 -0.05876,-0.05037 -0.02798,-0.02798 -0.06156,-0.05876 -0.10074,-0.09234 l -0.09234,-0.09235 c -0.02798,-0.02798 -0.04477,-0.04758 -0.05037,-0.05876 -0.0055,-0.0055 -0.01679,-0.03078 -0.03358,-0.07556 -0.0112,-0.04478 -0.02519,-0.09234 -0.04198,-0.142714 -0.01679,-0.05037 -0.03077,-0.09794 -0.04198,-0.142716 -0.01119,-0.04478 -0.01959,-0.07276 -0.02519,-0.08395 -0.02798,-0.06716 -0.08395,-0.173497 -0.167901,-0.319009 -0.07835,-0.145514 -0.162301,-0.291028 -0.251847,-0.436541 -0.08955,-0.15111 -0.170699,-0.282633 -0.243455,-0.394566 L 8.3646775,10.368934 V 9.3279536 c -0.0055,-0.00562 -0.02239,-0.027981 -0.05037,-0.067164 -0.02239,-0.039175 -0.05317,-0.086748 -0.09235,-0.1427148 -0.03358,-0.061563 -0.06156,-0.1091352 -0.08395,-0.1427149 -0.0055,0 -0.014,-0.00562 -0.02519,-0.016787 -0.01119,-0.011194 -0.01679,-0.019588 -0.01679,-0.025189 l -0.0084,-0.016789 v -0.033582 c 0,-0.061563 0.0084,-0.1119333 0.02519,-0.1511102 0.02239,-0.044775 0.03358,-0.097941 0.03358,-0.1595049 0,-0.044775 -0.0084,-0.095143 -0.02519,-0.1511104 -0.01679,-0.061562 -0.05596,-0.092345 -0.11753,-0.092345 -0.06156,0 -0.10074,0.025185 -0.11753,0.075555 -0.01119,0.044775 -0.01679,0.097942 -0.01679,0.159505 0,0.055967 -0.0055,0.1091354 -0.01679,0.1595054 -0.0055,0.044775 -0.03358,0.064361 -0.08395,0.058765 V 8.387717 l -0.07556,-0.05037 -0.09235,-0.05037 h -0.03358 -0.02519 c -0.01119,0.0056 -0.02519,0.013991 -0.04198,0.025185 -0.01679,0.011192 -0.02519,0.019586 -0.02519,0.025185 v 0.4449356 c 0,0.027982 -0.03637,0.058764 -0.109135,0.092345 -0.07276,0.027982 -0.153908,0.072756 -0.243455,0.1343199 -0.08955,0.05597 -0.170699,0.1315225 -0.243455,0.2266655 -0.07276,0.089547 -0.109135,0.207077 -0.109135,0.3525908 0.06716,0 0.123127,-0.011194 0.1679,-0.033582 0.04478,-0.022388 0.08675,-0.047569 0.125925,-0.075558 0.04478,-0.027981 0.08675,-0.05317 0.125925,-0.075558 0.04478,-0.022388 0.09514,-0.033582 0.15111,-0.033582 0.08955,0 0.145514,0.027981 0.167901,0.08395 0.02798,0.050369 0.04198,0.1091352 0.04198,0.1762955 v 0.15111 c 0,0.1623033 -0.02798,0.3050187 -0.08395,0.4281447 -0.05037,0.123128 -0.08955,0.257447 -0.117529,0.40296 -0.0055,0.04478 -0.0168,0.12033 -0.03358,0.226666 -0.01119,0.10074 -0.02519,0.207077 -0.04198,0.31901 -0.01679,0.111934 -0.03358,0.215473 -0.05037,0.310616 -0.01119,0.09514 -0.01959,0.156706 -0.02519,0.184689 -0.03358,0.319011 -0.05876,0.635223 -0.07556,0.948636 -0.01679,0.313414 -0.07556,0.621231 -0.176294,0.923451 -0.04478,0.128723 -0.09514,0.212674 -0.151111,0.25185 -0.05596,0.03918 -0.109135,0.06156 -0.159505,0.06716 h -0.125926 c -0.03358,-0.0056 -0.05037,0.01119 -0.05037,0.05037 0,0.05596 0.02519,0.09514 0.07556,0.11753 0.05596,0.0168 0.109135,0.02519 0.159505,0.02519 h 0.08395 c 0.01119,0 0.03918,-0.0028 0.08395,-0.0084 0.04478,-0.0055 0.07276,-0.0084 0.08395,-0.0084 0.06156,-0.04478 0.106337,-0.09514 0.13432,-0.151111 0.02798,-0.06156 0.05037,-0.125924 0.06716,-0.193085 0.01119,-0.03357 0.02798,-0.09794 0.05037,-0.193085 0.02239,-0.09514 0.04758,-0.195883 0.07556,-0.30222 0.02798,-0.106337 0.05317,-0.207077 0.07556,-0.30222 0.02239,-0.09514 0.03918,-0.159505 0.05037,-0.193085 l 0.201481,-0.293825 v 0 c 0,0 0.01119,-0.0084 0.01679,-0.0084 0.0055,0 0.01119,0.0028 0.01679,0.0084 h 0.0084 l 0.05037,0.04197 c 0.07835,0.100741 0.156707,0.209876 0.235059,0.327406 0.07835,0.117529 0.165103,0.207077 0.260245,0.26864 0.0055,0.0055 0.02519,0.01399 0.05876,0.02518 0.03358,0.0056 0.06996,0.01399 0.109135,0.02519 0.04478,0.01119 0.08395,0.02239 0.11753,0.03358 0.03358,0.0055 0.05317,0.01119 0.05876,0.0168 0.01119,0.01119 0.02798,0.04478 0.05037,0.10074 0.02239,0.05596 0.03918,0.08955 0.05037,0.10074 0.05596,0.07835 0.125925,0.162304 0.209874,0.25185 0.08395,0.08955 0.162304,0.170699 0.235061,0.243455 -0.01119,0.03357 -0.02798,0.05037 -0.05037,0.05037 h -0.06716 c -0.09514,0 -0.184689,-0.0084 -0.26864,-0.02519 -0.08395,-0.02239 -0.170698,-0.03357 -0.260245,-0.03357 -0.03358,0 -0.07835,0.0055 -0.13432,0.0168 -0.05037,0.01119 -0.103539,0.02798 -0.159505,0.05037 -0.05596,0.0168 -0.103538,0.03918 -0.142715,0.06716 -0.03918,0.02798 -0.05876,0.05876 -0.05876,0.09234 z m 0.898264,-1.183696 v -0.125925 c 0,-0.06716 0.01119,-0.123127 0.03358,-0.1679 0.02239,-0.05037 0.07276,-0.07556 0.15111,-0.07556 h 0.05876 c 0.01679,0 0.05596,0.0056 0.11753,0.0168 0.06716,0.01119 0.111934,0.01959 0.13432,0.02519 0.162304,0.195883 0.271439,0.397363 0.327406,0.60444 0.05596,0.20148 0.08395,0.428145 0.08395,0.679995 -0.111933,0 -0.223866,-0.02798 -0.335799,-0.08395 -0.106337,-0.06156 -0.20148,-0.137119 -0.285431,-0.226665 -0.08395,-0.09514 -0.153907,-0.198682 -0.209875,-0.310615 -0.05037,-0.111934 0.03485,-0.354202 -0.07556,-0.3358 z m -1.133324,-0.82271 c -0.04003,0.03057 -0.09514,0.01119 -0.13432,0.03357 -0.03918,0.02239 -0.08115,0.03357 -0.125925,0.03357 0,-0.26864 0.01399,-0.526088 0.04198,-0.772341 0.02798,-0.246253 0.06716,-0.5037 0.11753,-0.772341 0.03918,-0.02239 0.06996,-0.06716 0.09235,-0.13432 0.02239,-0.06716 0.03918,-0.120328 0.05037,-0.159505 0,-0.0056 0.0028,-0.03358 0.0084,-0.08395 0.0056,-0.05037 0.01399,-0.103539 0.02519,-0.159505 0.01119,-0.061563 0.02239,-0.1203282 0.03358,-0.1762952 0.01119,-0.055962 0.02239,-0.097941 0.03358,-0.1259247 v -0.02518 -0.025189 L 7.7434365,9.2775772 c -0.02798,-0.016787 -0.06716,-0.027981 -0.11753,-0.033582 -0.04478,-0.011194 -0.09235,-0.019588 -0.142715,-0.025189 -0.04478,-0.00562 -0.08675,-0.013986 -0.125926,-0.025189 -0.03358,-0.011194 -0.05317,-0.030782 -0.05876,-0.058763 l 0.10074,-0.1007392 c 0.0055,0 0.02519,-0.00281 0.05876,-0.00839 0.03918,-0.00562 0.06436,-0.00839 0.07556,-0.00839 0.179094,0 0.310615,0.05597 0.394566,0.1679003 0.08395,0.1119333 0.139917,0.2490519 0.167899,0.4113552 0.02798,0.1567063 0.03918,0.3218084 0.03358,0.4953045 0,0.167901 0.0028,0.307817 0.0084,0.419751 0,0.01119 0.0055,0.03637 0.01679,0.07556 0.01679,0.03918 0.02798,0.06436 0.03358,0.07556 0.05596,0.09514 0.125925,0.201481 0.209875,0.319011 0.08955,0.111933 0.173497,0.229463 0.25185,0.35259 0.07835,0.123126 0.145513,0.25185 0.20148,0.38617 0.06156,0.128724 0.09235,0.254649 0.09235,0.377775 0,0.05037 -0.0196,0.103539 -0.05876,0.159505 -0.03358,0.05037 -0.07556,0.103539 -0.125926,0.159505 -0.04477,0.05037 -0.08955,0.106337 -0.13432,0.167901 -0.04478,0.06156 -0.07556,0.128723 -0.09235,0.20148 h -0.02519 c -0.09514,0 -0.179094,-0.03918 -0.25185,-0.117531 -0.07276,-0.07835 -0.139917,-0.162303 -0.20148,-0.25185 -0.06156,-0.09514 -0.120328,-0.181891 -0.176295,-0.260245 -0.05596,-0.07835 -0.127366,-0.154893 -0.176295,-0.11753 z m 5.3308165,1.788135 c -0.0224,0 -0.0644,0.0028 -0.12592,0.0084 -0.0616,0 -0.12593,0.0028 -0.19309,0.0084 -0.0672,0.0055 -0.13152,0.01119 -0.19308,0.01679 -0.0615,0.0055 -0.10354,0.01119 -0.12593,0.0168 -0.0392,0.0055 -0.084,0.01119 -0.13432,0.0168 -0.0504,0 -0.0979,0.0084 -0.14271,0.02519 -0.0448,0.01119 -0.084,0.03357 -0.11754,0.06716 -0.028,0.02798 -0.042,0.07276 -0.042,0.134319 h 2.56047 c 0.028,0 0.0615,-0.01399 0.10074,-0.04198 0.0392,-0.02798 0.0587,-0.05596 0.0587,-0.08395 0,-0.03918 -0.0196,-0.06436 -0.0587,-0.07556 -0.0336,-0.01119 -0.0728,-0.0168 -0.11752,-0.0168 -0.0448,-0.0056 -0.0868,-0.01399 -0.12593,-0.02519 -0.0335,-0.01119 -0.0504,-0.04197 -0.0504,-0.09234 0,-0.167899 0.0336,-0.293824 0.10074,-0.377775 0.0728,-0.08395 0.1623,-0.15111 0.26864,-0.201479 0.10634,-0.05037 0.21828,-0.09514 0.3358,-0.134321 0.11754,-0.03918 0.22667,-0.10074 0.32741,-0.18469 l 0.20148,-0.20148 c 0.0224,-0.01119 0.0587,-0.02519 0.10913,-0.04198 0.0559,-0.0168 0.11194,-0.03638 0.16791,-0.05876 0.0615,-0.02798 0.11473,-0.05876 0.1595,-0.09234 0.0448,-0.03357 0.0672,-0.07556 0.0672,-0.125924 0,-0.03357 -0.0448,-0.08675 -0.13432,-0.159505 -0.0895,-0.07835 -0.19308,-0.159505 -0.31062,-0.243455 -0.11193,-0.08955 -0.22386,-0.176295 -0.33579,-0.260246 -0.10634,-0.08395 -0.1791,-0.151109 -0.21828,-0.201479 -0.0783,-0.106337 -0.1567,-0.232261 -0.23506,-0.377775 -0.0728,-0.145514 -0.1511,-0.291027 -0.23505,-0.43654 -0.0783,-0.151111 -0.16511,-0.293826 -0.26025,-0.428146 -0.0896,-0.13432 -0.19308,-0.246254 -0.31061,-0.3358004 -0.0952,-0.07835 -0.19309,-0.145513 -0.29383,-0.20148 -0.0952,-0.061563 -0.19308,-0.1259254 -0.29382,-0.1930849 -0.11754,-0.083951 -0.22107,-0.204279 -0.31062,-0.3609852 -0.084,-0.1623033 -0.17349,-0.3218088 -0.26864,-0.4785151 -0.0952,-0.1623037 -0.20428,-0.3022206 -0.3274,-0.4197502 -0.11754,-0.1231271 -0.26864,-0.1846903 -0.45333,-0.1846903 -0.0952,0 -0.1735,0.00559 -0.23506,0.016789 -0.0615,0.011194 -0.11754,0.03078 -0.16791,0.058765 -0.0448,0.027982 -0.0895,0.064361 -0.134319,0.1091349 -0.03916,0.044775 -0.08395,0.10074 -0.134317,0.1679003 l -0.04197,0.041973 c -0.07832,0.044775 -0.176288,0.081152 -0.293822,0.1091349 -0.117533,0.027982 -0.201476,0.044771 -0.251854,0.05037 l -0.0084,0.016789 V 8.68156 c 0,0.044775 0.01396,0.069958 0.04197,0.075555 0.03354,0.0056 0.07278,0.013991 0.117534,0.025185 0.0056,0 0.0252,0.00278 0.05874,0.0084 0.03354,0.0056 0.06997,0.011194 0.109131,0.016789 0.03916,0.0056 0.07278,0.011194 0.100747,0.016789 0.03354,0.0056 0.05593,0.0084 0.06716,0.0084 0.08395,0.1455136 0.148315,0.2938247 0.193083,0.4449347 0.05039,0.1511101 0.103538,0.299422 0.159507,0.4449358 v 0.1846897 c 0.006,0.089547 0.0112,0.1846898 0.0168,0.2854298 0.006,0.10074 0.0112,0.195884 0.0168,0.285431 0.006,0.08955 0.0112,0.15111 0.0168,0.18469 0.0168,0.15111 0.0615,0.296624 0.13432,0.436541 0.0728,0.134319 0.15951,0.263043 0.26025,0.386169 0.10074,0.123128 0.20708,0.240658 0.31901,0.35259 0.11753,0.106337 0.22667,0.207077 0.3274,0.302221 -0.006,0.179093 0.014,0.319011 0.0587,0.41975 0.0504,0.10074 0.10914,0.190287 0.1763,0.268641 l 0.20148,0.218269 c 0.0672,0.07276 0.11753,0.167901 0.15111,0.28543 -0.006,0.0168 -0.0168,0.04758 -0.0335,0.09235 -0.0168,0.04478 -0.0392,0.09514 -0.0672,0.15111 -0.0224,0.05037 -0.0532,0.10074 -0.0923,0.15111 -0.0335,0.04478 -0.07,0.07835 -0.10913,0.10074 z m 0.3526,-0.07556 c 0,-0.05037 0.014,-0.09514 0.042,-0.134319 0.028,-0.03918 0.0587,-0.07556 0.0924,-0.109135 l 0.10074,-0.10074 c 0.0336,-0.03918 0.0559,-0.08115 0.0672,-0.125926 0,-0.0168 -0.002,-0.04478 -0.008,-0.08395 v -0.117527 c 0,-0.106337 0.0335,-0.159505 0.10074,-0.159505 0.0224,0 0.0532,0.01959 0.0924,0.05876 0.0448,0.03918 0.0839,0.08675 0.11753,0.142715 0.0392,0.05596 0.0728,0.111934 0.10074,0.1679 0.028,0.05037 0.042,0.08675 0.042,0.109135 0,0.02239 -0.006,0.05876 -0.0168,0.109135 -0.006,0.04478 -0.0168,0.09234 -0.0335,0.142715 -0.0168,0.04478 -0.0392,0.08675 -0.0672,0.125926 -0.0224,0.03357 -0.0504,0.05037 -0.084,0.05037 h -0.49531 c -0.0112,0 -0.0196,-0.0055 -0.0252,-0.0168 -0.006,-0.0168 -0.014,-0.02798 -0.0252,-0.03357 z m -1.41037,-4.1807096 c -0.0951,-0.1287228 -0.17349,-0.2574463 -0.23506,-0.3861698 -0.0559,-0.1287236 -0.084,-0.2686399 -0.084,-0.4197501 0,-0.2910268 0.13152,-0.43654 0.39456,-0.43654 0.15671,0 0.28823,0.05037 0.39457,0.1511098 0.10634,0.1007403 0.19869,0.2210686 0.27704,0.3609851 0.0783,0.139917 0.1511,0.28543 0.21827,0.4365408 0.0728,0.145513 0.15671,0.2630433 0.25184,0.3525901 0.0728,0.07835 0.15951,0.1427149 0.26025,0.1930849 0.10074,0.050369 0.19869,0.106337 0.29382,0.1679003 0.10075,0.055974 0.19029,0.1259245 0.26864,0.2098755 0.0784,0.07835 0.13432,0.181891 0.16791,0.310615 -0.0224,0.01119 -0.0448,0.03358 -0.0672,0.06716 -0.0224,0.03358 -0.0335,0.06156 -0.0335,0.08395 0,0.01119 0.006,0.03637 0.0168,0.07556 0.0168,0.03918 0.0252,0.06156 0.0252,0.06716 v 0.07556 c 0.006,0.03358 0.008,0.06996 0.008,0.109135 v 0.109135 c 0.006,0.03358 0.008,0.05876 0.008,0.07556 -0.0392,0 -0.0812,-0.01399 -0.12593,-0.04198 -0.0392,-0.03357 -0.0811,-0.06996 -0.12592,-0.109135 -0.0392,-0.04478 -0.0812,-0.08675 -0.12592,-0.125925 -0.0448,-0.04478 -0.0896,-0.07556 -0.13432,-0.09234 -0.0168,-0.0056 -0.0504,-0.01399 -0.10075,-0.02519 -0.0448,-0.0168 -0.0923,-0.03078 -0.14271,-0.04198 -0.0504,-0.01679 -0.10074,-0.03078 -0.15111,-0.04198 -0.0448,-0.0168 -0.0783,-0.02798 -0.10074,-0.03358 -0.0168,-0.01119 -0.0392,-0.03358 -0.0672,-0.06716 -0.0224,-0.03358 -0.0336,-0.06156 -0.0336,-0.08395 0,-0.08955 0.0168,-0.162304 0.0504,-0.218271 0.0392,-0.05597 0.0784,-0.103538 0.11753,-0.142714 0.0448,-0.03918 0.084,-0.07276 0.11752,-0.10074 0.0392,-0.03358 0.0587,-0.072758 0.0587,-0.1175307 -0.17349,0 -0.31621,0.050369 -0.42815,0.1511097 -0.11193,0.09514 -0.16789,0.235061 -0.16789,0.419751 v 0.09234 c 0,0.11753 0.0532,0.187488 0.1595,0.209875 l 0.58765,0.20148 c 0.10074,0.03357 0.1791,0.10074 0.23506,0.20148 0.0559,0.09514 0.10074,0.195884 0.13432,0.30222 0.0392,0.100741 0.0756,0.193085 0.10913,0.277036 0.0392,0.07835 0.0923,0.11753 0.15951,0.11753 0.0335,0 0.0587,-0.01399 0.0756,-0.04198 0.0168,-0.02798 0.0308,-0.06156 0.042,-0.10074 0.0112,-0.03918 0.0196,-0.07835 0.0252,-0.11753 0.006,-0.03918 0.0112,-0.06996 0.0168,-0.09234 0,-0.02239 0.002,-0.06156 0.008,-0.11753 0.006,-0.05596 0.0112,-0.114732 0.0168,-0.176295 0.006,-0.06156 0.0112,-0.120328 0.0168,-0.176295 0.006,-0.05596 0.008,-0.09794 0.008,-0.125925 h 0.0168 c 0.0168,0 0.0559,0.04198 0.11753,0.125925 0.0615,0.08395 0.12873,0.179093 0.20148,0.28543 0.0728,0.10074 0.14272,0.20148 0.20988,0.30222 0.0672,0.09514 0.11473,0.156707 0.14271,0.18469 0.0112,0.0055 0.0308,0.01959 0.0587,0.04198 0.0336,0.02239 0.07,0.04758 0.10914,0.07556 0.0392,0.02239 0.0755,0.04758 0.10913,0.07556 l 0.0756,0.05037 c 0.0448,0.02798 0.0979,0.05596 0.15951,0.08395 0.0615,0.02798 0.0923,0.08115 0.0923,0.159506 l -0.10914,0.08395 -0.23506,0.176296 c -0.0895,0.06156 -0.1735,0.120329 -0.25185,0.176294 -0.0783,0.05596 -0.12872,0.09235 -0.15111,0.109136 -0.0504,0.02798 -0.10354,0.04478 -0.1595,0.05037 -0.0559,0.0055 -0.11194,0.0084 -0.16791,0.0084 -0.0559,0 -0.11193,0.0055 -0.1679,0.0168 -0.0559,0.01119 -0.10633,0.03357 -0.15111,0.06716 h 0.0504 l -0.59603,-0.596048 c -0.14552,-0.123128 -0.29103,-0.226666 -0.43655,-0.310616 -0.1455,-0.08955 -0.28822,-0.181892 -0.42814,-0.277035 -0.13991,-0.09514 -0.27423,-0.204278 -0.40296,-0.327406 -0.12872,-0.128722 -0.24904,-0.299422 -0.36099,-0.512095 -0.0111,-0.0168 -0.0252,-0.03918 -0.042,-0.06716 -0.0112,-0.03358 -0.0252,-0.06436 -0.042,-0.09235 -0.0112,-0.03358 -0.0224,-0.06436 -0.0335,-0.09234 -0.006,-0.02798 -0.008,-0.04478 -0.008,-0.05037 z m 1.09135,2.8039326 c 0.0336,0 0.0755,0.0084 0.12592,0.02518 0.0559,0.0168 0.10914,0.03918 0.15951,0.06716 0.0504,0.02239 0.0923,0.05037 0.12593,0.08395 0.0392,0.03358 0.0587,0.06996 0.0587,0.109135 0,0.0055 -0.002,0.01119 -0.008,0.0168 v 0.0084 c -0.028,0.06716 -0.0448,0.120328 -0.0504,0.159505 0,0.03357 -0.028,0.05037 -0.084,0.05037 -0.0615,0 -0.11473,-0.0168 -0.15951,-0.05037 -0.0392,-0.03918 -0.0728,-0.08395 -0.10074,-0.13432 -0.0224,-0.05596 -0.0392,-0.111934 -0.0504,-0.1679 -0.0112,-0.06156 -0.0168,-0.117531 -0.0168,-0.167901 z m -1.31801,-3.7357774 c -0.0604,-0.080592 0.0476,0.1511098 0.14271,0.1511098 0.0728,0 0.11753,-0.0084 0.13432,-0.025185 0.0224,-0.022388 0.0335,-0.069959 0.0335,-0.1427151 0,-0.044775 -0.008,-0.078354 -0.0252,-0.1007401 -0.0112,-0.027982 -0.0476,-0.041973 -0.10913,-0.041973 -0.0392,0 -0.0784,0.016789 -0.11754,0.050371 -0.0392,0.027982 -0.0319,0.1449542 -0.0587,0.109135 z m 6.93427,4.0296024 c 0,0.212673 0.0532,0.408557 0.1595,0.587651 0.10634,0.179092 0.24066,0.333001 0.40297,0.461724 0.1679,0.128724 0.35259,0.229464 0.55407,0.302221 0.20147,0.07276 0.39736,0.109135 0.58765,0.109135 0.20147,0 0.40016,-0.03918 0.59604,-0.11753 0.20148,-0.07835 0.38058,-0.187489 0.53728,-0.327406 0.1567,-0.139916 0.28263,-0.30222 0.37778,-0.486909 0.10074,-0.184691 0.1511,-0.386171 0.1511,-0.60444 0,-0.240658 -0.0587,-0.458928 -0.17629,-0.654811 -0.11193,-0.195883 -0.25745,-0.363784 -0.43654,-0.5037 -0.17909,-0.139917 -0.38057,-0.246254 -0.60444,-0.319011 -0.21827,-0.07835 -0.43374,-0.11753 -0.64642,-0.11753 -0.20707,0 -0.40295,0.05037 -0.58764,0.15111 -0.1791,0.10074 -0.3386,0.232262 -0.47852,0.394566 -0.13432,0.156707 -0.24066,0.335799 -0.31901,0.537279 -0.0783,0.195884 -0.11753,0.391768 -0.11753,0.587651 z m 1.53628,0.95703 h 0.008 c 0,-0.0055 0.002,-0.0084 0.008,-0.0084 0.006,0 0.0112,0.0028 0.0168,0.0084 h 0.008 c 0.0168,0.01119 0.0448,0.03637 0.084,0.07556 l 0.0755,0.07556 v 0.0168 0.03357 z m -0.54567,-0.20148 h 0.0252 c 0.0335,0 0.07,0.01399 0.10914,0.04198 0.0392,0.02798 0.0755,0.05876 0.10913,0.09234 0.0392,0.03357 0.0728,0.06716 0.10074,0.10074 0.028,0.03357 0.0448,0.05596 0.0504,0.06716 l -0.0504,0.05037 z m -0.64642,-1.183695 h 0.10074 c 0.24066,0.25185 0.49811,0.492506 0.77234,0.72197 0.27425,0.223867 0.52889,0.461725 0.76395,0.713576 -0.006,0 -0.014,0.0028 -0.0252,0.0084 h -0.0252 c -0.028,0 -0.0672,-0.01399 -0.11753,-0.04198 -0.0504,-0.03357 -0.10354,-0.06996 -0.15951,-0.109135 -0.0504,-0.04478 -0.0979,-0.08395 -0.14271,-0.11753 -0.0392,-0.03918 -0.0644,-0.06716 -0.0756,-0.08395 -0.0448,-0.03918 -0.12033,-0.109135 -0.22667,-0.209875 l -0.3274,-0.327401 c -0.11193,-0.11753 -0.22106,-0.226665 -0.3274,-0.327406 -0.10074,-0.106336 -0.1707,-0.181891 -0.20988,-0.226664 z m 0.40297,0.05037 h 0.042 c 0.10634,0.128723 0.21827,0.246254 0.3358,0.35259 l 0.36938,0.319011 c 0.12872,0.106336 0.25465,0.212673 0.37777,0.31901 0.12313,0.106337 0.24066,0.221068 0.3526,0.344194 h -0.10074 l -0.10074,-0.07556 c -0.0615,-0.05596 -0.13432,-0.120329 -0.21827,-0.193085 -0.084,-0.07276 -0.17071,-0.148312 -0.26025,-0.226666 -0.0895,-0.07835 -0.1595,-0.145513 -0.20988,-0.20148 -0.0392,-0.02798 -0.0895,-0.06996 -0.15111,-0.125925 l -0.17629,-0.176295 c -0.0559,-0.06156 -0.10633,-0.114732 -0.15111,-0.159505 -0.0392,-0.04478 -0.0615,-0.06996 -0.0672,-0.07556 z m 0.73876,1.234065 c 0.0224,0 0.0335,0.01959 0.0335,0.05876 0,0.02798 -0.0112,0.04198 -0.0335,0.04198 -0.028,0 -0.042,-0.01399 -0.042,-0.04198 0,-0.03918 0.014,-0.05876 0.042,-0.05876 z m -1.19209,-1.066165 c 0.0392,0 0.0979,0.03078 0.17629,0.09235 0.0783,0.05596 0.15671,0.123126 0.23506,0.20148 0.084,0.07276 0.1595,0.145513 0.22667,0.21827 0.0728,0.07276 0.12312,0.125925 0.1511,0.159505 0.0112,0.01119 0.0308,0.03357 0.0587,0.06716 0.028,0.03357 0.0587,0.06996 0.0923,0.109134 0.0335,0.03358 0.0643,0.06716 0.0923,0.100741 0.028,0.03357 0.0476,0.05876 0.0587,0.07556 -0.006,0 -0.0112,0.0028 -0.0168,0.0084 h -0.008 -0.0168 l -0.008,-0.0084 c -0.0168,-0.01119 -0.0504,-0.03637 -0.10074,-0.07556 -0.0504,-0.03918 -0.0812,-0.06436 -0.0923,-0.07556 -0.0672,-0.05595 -0.1483,-0.128717 -0.24345,-0.218264 -0.0951,-0.08955 -0.18749,-0.176294 -0.27703,-0.260245 -0.0896,-0.08395 -0.16791,-0.156706 -0.23506,-0.218269 l -0.0923,-0.10074 z m 2.08195,1.024191 c -0.0112,0.01119 -0.0196,0.0168 -0.0252,0.0168 -0.0112,0 -0.0196,-0.0056 -0.0252,-0.0168 -0.006,-0.0168 0.002,-0.02519 0.0252,-0.02519 0.0224,0 0.0308,0.0084 0.0252,0.02519 z m -1.43554,-1.628631 1.679,1.569865 c -0.0224,0.03357 -0.0392,0.05317 -0.0504,0.05876 l -0.008,0.0084 h -0.0168 -0.0168 l -0.008,-0.0084 c 0,-0.0055 -0.0112,-0.0168 -0.0336,-0.03357 -0.0168,-0.02239 -0.0392,-0.04478 -0.0672,-0.06716 -0.0224,-0.02239 -0.0448,-0.04198 -0.0672,-0.05876 -0.0168,-0.02239 -0.028,-0.03637 -0.0336,-0.04198 l -0.48691,-0.444939 c -0.0672,-0.06156 -0.15391,-0.142716 -0.26025,-0.243456 l -0.29383,-0.293825 c -0.0895,-0.09514 -0.1679,-0.176295 -0.23506,-0.243456 l -0.10074,-0.109134 z m -0.29382,1.527891 h 0.042 v 0.04198 z m 1.26765,-0.25185 h 0.0672 l 0.29382,0.293824 h -0.0252 c -0.028,0 -0.0587,-0.0084 -0.0923,-0.02519 -0.0336,-0.02239 -0.0672,-0.04758 -0.10075,-0.07556 -0.0335,-0.02798 -0.0615,-0.05317 -0.084,-0.07556 -0.0224,-0.02798 -0.0363,-0.05037 -0.042,-0.06716 -0.006,0 -0.0112,-0.0055 -0.0168,-0.0168 v -0.03357 z m -1.03259,0.1679 v 0 c 0,0 0.008,-0.01119 0.008,-0.0168 l 0.0252,0.02519 c 0.0112,0.0055 0.0196,0.014 0.0252,0.02518 v 0.0084 c 0.006,0.0055 0.008,0.01119 0.008,0.0168 0,0.0055 -0.002,0.01119 -0.008,0.0168 v 0.0084 l -0.0504,-0.05037 -0.008,-0.0084 z m 1.14172,-0.663205 0.59604,0.495305 c 0.006,0 0.0335,0.02239 0.084,0.06716 0.0559,0.04478 0.084,0.08955 0.084,0.13432 h -0.0672 l -0.0504,-0.03357 c -0.0336,-0.02798 -0.0728,-0.05876 -0.11753,-0.09234 -0.0392,-0.03918 -0.0812,-0.07835 -0.12593,-0.11753 -0.0448,-0.03918 -0.0811,-0.07276 -0.10914,-0.10074 l -0.0839,-0.08395 c -0.028,-0.03358 -0.0587,-0.06716 -0.0923,-0.10074 -0.028,-0.03358 -0.0559,-0.06156 -0.0839,-0.08395 l -0.0336,-0.03357 z m -1.67901,0.45333 h 0.0168 c 0.006,-0.0055 0.0112,-0.0084 0.0168,-0.0084 l 0.0168,0.0084 c 0.0224,0.01119 0.0559,0.04198 0.10074,0.09235 0.0504,0.04478 0.0812,0.07835 0.0923,0.10074 l -0.008,0.0084 h -0.008 -0.0168 l -0.008,-0.0084 c -0.0224,-0.01119 -0.0587,-0.04198 -0.10913,-0.09235 -0.0448,-0.05596 -0.0756,-0.08955 -0.0923,-0.10074 z m 0.44494,0.09235 c -0.006,0.01119 -0.0168,0.02519 -0.0168,0.02519 v 0 c 0,0 -0.0224,-0.0084 -0.0335,-0.02519 -0.006,-0.0168 0.006,-0.02519 0.0335,-0.02519 0.028,0 0.0335,0.0084 0.0168,0.02519 z m 2.0148,-0.09235 h 0.0672 v 0.09235 c -0.0448,-0.0168 -0.0672,-0.04757 -0.0672,-0.09235 z m -2.11554,0 c 0.028,0 0.042,0.01399 0.042,0.04198 0,0.03357 -0.014,0.05037 -0.042,0.05037 -0.0224,0 -0.0336,-0.0168 -0.0336,-0.05037 0,-0.02798 0.0112,-0.04198 0.0336,-0.04198 z m -0.042,-0.05876 c 0.0224,0 0.0336,0.01959 0.0336,0.05876 0,0.02798 -0.0112,0.04198 -0.0336,0.04198 -0.028,0 -0.042,-0.01399 -0.042,-0.04198 0,-0.03918 0.014,-0.05876 0.042,-0.05876 z m -0.10074,-1.133328 v -0.05876 c 0.0112,0 0.0196,0.0028 0.0252,0.0084 0.006,0.0055 0.0112,0.0084 0.0168,0.0084 0.0112,0 0.028,0.0055 0.0504,0.0168 0.028,0.0055 0.0448,0.01399 0.0504,0.02519 l 1.19209,1.133326 v 0.06716 h -0.0335 c -0.006,-0.0055 -0.0112,-0.0084 -0.0168,-0.0084 -0.0112,-0.0055 -0.0308,-0.01399 -0.0587,-0.02518 -0.0224,-0.01119 -0.0335,-0.02239 -0.0335,-0.03357 z m 2.07356,1.032585 h 0.0252 0.0252 l 0.10074,0.100741 c -0.006,0 -0.0112,0.0028 -0.0168,0.0084 h -0.008 -0.0168 l -0.008,-0.0084 c -0.0112,-0.0056 -0.0308,-0.01959 -0.0587,-0.04197 -0.0224,-0.02798 -0.0295,-0.06032 -0.042,-0.05876 z m -2.07356,0 c 0.0224,0 0.0336,0.01959 0.0336,0.05876 0,0.02798 -0.0112,0.04198 -0.0336,0.04198 -0.028,0 -0.042,-0.01399 -0.042,-0.04198 0,-0.03918 0.014,-0.05876 0.042,-0.05876 z m -0.0504,0 c -0.006,0.02239 -0.014,0.03357 -0.0252,0.03357 -0.0112,0 -0.0196,-0.0084 -0.0252,-0.02519 -0.006,-0.0168 0.002,-0.02519 0.0252,-0.02519 0.0168,0 0.0252,0.0056 0.0252,0.0168 z m 0.71357,-1.586655 c 0.006,5.57e-4 0.0504,0.03357 0.13432,0.10074 0.0896,0.06716 0.19589,0.15111 0.31902,0.25185 0.12872,0.10074 0.26584,0.215471 0.41135,0.344195 0.14552,0.123126 0.27984,0.243455 0.40296,0.360986 0.12872,0.111932 0.23506,0.215471 0.31901,0.310615 0.0839,0.09514 0.12593,0.162303 0.12593,0.201479 l -0.008,0.0168 c -0.0112,-0.0056 -0.0448,-0.02798 -0.10073,-0.06716 -0.0504,-0.03918 -0.0812,-0.06436 -0.0923,-0.07556 -0.028,-0.0224 -0.10354,-0.08675 -0.22666,-0.19309 -0.11754,-0.106337 -0.25186,-0.223867 -0.40297,-0.35259 -0.14551,-0.13432 -0.29103,-0.265843 -0.43654,-0.394565 -0.13991,-0.128724 -0.24625,-0.226666 -0.31901,-0.293826 -0.0448,-0.04478 -0.0783,-0.07556 -0.10074,-0.09234 -0.0168,-0.0168 -0.0864,-0.123655 -0.0252,-0.11753 z m 0.62124,0.898266 h 0.0252 0.0252 c 0.0559,0.03357 0.11753,0.08115 0.18469,0.142714 0.0728,0.05596 0.13991,0.11753 0.20148,0.18469 0.0672,0.06156 0.12592,0.123127 0.17629,0.184691 0.0559,0.05596 0.0979,0.100739 0.12593,0.13432 h -0.0504 c -0.006,-0.0055 -0.0308,-0.02239 -0.0755,-0.05037 -0.0392,-0.03357 -0.0867,-0.07556 -0.14272,-0.125924 -0.0559,-0.05037 -0.0979,-0.08955 -0.12592,-0.11753 z m -1.53629,0.545675 h 0.0504 v 0.05037 z m 2.60245,-0.159506 c 0.028,-8.02e-4 0.0559,0.0084 0.084,0.02519 0.028,0.01119 0.042,0.03357 0.042,0.06716 l -0.008,0.0084 v 0.0084 l -0.084,-0.03357 c -0.0224,-0.0168 -0.0672,-0.07455 -0.0336,-0.07556 z m -1.01579,-0.09234 h 0.008 c 0.006,-0.0055 0.0112,-0.0084 0.0168,-0.0084 0.006,0 0.0112,0.0028 0.0168,0.0084 h 0.008 l 0.0252,0.02519 c 0.0112,0.01119 0.0196,0.02239 0.0252,0.03357 h -0.0335 -0.0168 l -0.0252,-0.02519 c -0.0112,-0.01119 -0.0196,-0.02239 -0.0252,-0.03357 z m -0.41136,-1.276041 h 0.0672 c 0.20147,0.207076 0.42814,0.414153 0.67998,0.62123 0.25186,0.207077 0.47013,0.425347 0.65482,0.654811 0.006,0.0055 0.008,0.0168 0.008,0.03357 0.006,0.0168 0.008,0.02798 0.008,0.03357 h -0.0336 c -0.0168,-0.0055 -0.0308,-0.0084 -0.042,-0.0084 l -0.042,-0.05876 -0.94024,-0.839501 c -0.0168,-0.01119 -0.0448,-0.03357 -0.0839,-0.06716 -0.0392,-0.03358 -0.0811,-0.07276 -0.12593,-0.11753 -0.0392,-0.04478 -0.0756,-0.08955 -0.10913,-0.13432 -0.028,-0.04478 -0.042,-0.08395 -0.042,-0.11753 z m 0.36099,1.175301 c 0.0224,0 0.0335,0.01959 0.0335,0.05876 0,0.02798 -0.0112,0.04198 -0.0335,0.04198 -0.0224,0 -0.0335,-0.01399 -0.0335,-0.04198 0,-0.03918 0.0112,-0.05876 0.0335,-0.05876 z m -0.25186,-0.167901 v -0.02519 c 0.0504,0.0055 0.0896,0.03078 0.11754,0.07556 0.0335,0.03918 0.0615,0.07835 0.084,0.117531 -0.006,0 -0.0112,0.0028 -0.0168,0.0084 h -0.008 -0.0168 v -0.0084 c -0.0168,-0.0055 -0.0448,-0.02798 -0.084,-0.06717 l -0.0755,-0.07556 z m -0.54567,-0.763946 v -0.02518 c 0.006,-0.01119 0.008,-0.01959 0.008,-0.02519 0.0112,0.01119 0.0335,0.02798 0.0672,0.05037 0.0392,0.02239 0.0644,0.03918 0.0756,0.05037 0.0392,0.03358 0.0895,0.08115 0.15111,0.142716 0.0615,0.06156 0.12033,0.123127 0.17629,0.18469 0.0615,0.05596 0.11193,0.106336 0.15111,0.15111 0.0448,0.03918 0.07,0.06156 0.0756,0.06716 l 0.042,0.09234 c -0.006,0 -0.0112,0.0028 -0.0168,0.0084 h -0.008 c -0.028,0 -0.0811,-0.02798 -0.1595,-0.08395 -0.0784,-0.06155 -0.15951,-0.131516 -0.24346,-0.209869 -0.0839,-0.07835 -0.1595,-0.156707 -0.22667,-0.23506 -0.0615,-0.07835 -0.0923,-0.13432 -0.0923,-0.167901 z m 0.40296,0.596046 c 0.0224,0 0.0335,0.01399 0.0335,0.04198 0,0.03357 -0.0112,0.05037 -0.0335,0.05037 -0.028,0 -0.042,-0.0168 -0.042,-0.05037 0,-0.02798 0.014,-0.04198 0.042,-0.04198 z m 0.78913,-0.40296 h 0.0252 c 0.0336,0 0.07,0.0168 0.10914,0.05037 0.0448,0.03357 0.0867,0.07556 0.12592,0.125925 0.0448,0.04478 0.084,0.08955 0.11754,0.13432 0.0335,0.04478 0.0559,0.07556 0.0672,0.09234 h -0.0252 -0.0252 c -0.0951,-0.02798 -0.1735,-0.08395 -0.23506,-0.1679 -0.0559,-0.08395 -0.10914,-0.162304 -0.15951,-0.235061 z m -1.33481,0.10074 0.0252,0.02519 c 0,0.01119 -0.008,0.01959 -0.0252,0.02519 -0.0168,0.0055 -0.0252,-0.0028 -0.0252,-0.02519 0,-0.02239 0.008,-0.03078 0.0252,-0.02519 z m -0.10073,-0.04198 c -0.006,0 -0.0112,0.0028 -0.0168,0.0084 v 0.0084 c -0.0112,0 -0.0224,-0.0055 -0.0335,-0.0168 -0.006,-0.0168 0.006,-0.02519 0.0335,-0.02519 0.0168,0 0.0224,0.0084 0.0168,0.02519 z m 1.3348,-0.151108 h 0.0504 v 0.05037 z m -0.26024,-0.260245 c 0.0448,0 0.084,0.01959 0.11753,0.05876 0.0392,0.03918 0.07,0.07276 0.0923,0.10074 v 0.0084 c 0.006,0.0056 0.008,0.01119 0.008,0.0168 0,0.0055 -0.002,0.01119 -0.008,0.0168 v 0.0084 c -0.0448,-0.01119 -0.0923,-0.03637 -0.14271,-0.07556 -0.0448,-0.03918 -0.0672,-0.08395 -0.0672,-0.134321 z m -3.99599,-2.5101093 v 0.067159 c 0,0.027982 0.006,0.044771 0.0168,0.050371 0.0112,0.00562 0.0392,0.013987 0.084,0.025189 0.31901,0.1175294 0.62962,0.2266646 0.93184,0.3274046 0.30781,0.095144 0.61283,0.1790936 0.91505,0.2518501 0.30223,0.072757 0.61004,0.1287235 0.92345,0.1679003 0.31342,0.039175 0.63802,0.058763 0.97383,0.058763 0.58205,0 1.13612,-0.067164 1.66221,-0.20148 0.53168,-0.1399168 1.07176,-0.3078171 1.62024,-0.5037001 0.0615,-0.016787 0.12592,-0.036375 0.19308,-0.058763 0.0672,-0.027981 0.10074,-0.081151 0.10074,-0.159505 V 8.832657 c 0,-0.0056 -0.006,-0.01959 -0.0168,-0.041973 -0.0112,-0.027986 -0.0224,-0.047574 -0.0335,-0.058768 -0.57646,-0.3134134 -1.1893,-0.5316833 -1.83851,-0.6548099 -0.64362,-0.1287236 -1.29284,-0.1930851 -1.94764,-0.1930851 -0.0336,0 -0.0923,0.00279 -0.1763,0.0084 h -0.27703 -0.45333 c -0.43654,0.05037 -0.8563,0.1399169 -1.25925,0.2686404 -0.40296,0.1231267 -0.80872,0.2630435 -1.21728,0.4197503 -0.0615,0.027982 -0.11193,0.061562 -0.15111,0.1007398 -0.0336,0.033581 -0.074,0.2139945 -0.0504,0.1511102 z m 0.44494,-0.025185 c 0.016,-0.00531 0.0363,-0.041973 0.10913,-0.075556 0.0783,-0.039176 0.16511,-0.078354 0.26025,-0.1175297 0.10074,-0.039177 0.19588,-0.075555 0.28543,-0.1091355 0.0951,-0.033581 0.1595,-0.055966 0.19308,-0.06716 0.41975,-0.1231268 0.82831,-0.2042782 1.22567,-0.2434548 0.39736,-0.039177 0.81432,-0.058765 1.25086,-0.058765 h 0.15951 c 0.0672,0 0.13152,0.00278 0.19308,0.0084 h 0.15951 0.0755 c 0.0168,0 0.0672,0.00559 0.15111,0.016789 0.084,0.011194 0.17629,0.025185 0.27704,0.041973 0.10633,0.016789 0.20987,0.033581 0.31061,0.05037 0.10634,0.016789 0.19029,0.027982 0.25185,0.033581 0.0728,0.016789 0.18749,0.044775 0.34419,0.08395 0.16231,0.033581 0.32741,0.075555 0.49531,0.1259253 0.17349,0.044775 0.3302,0.097942 0.47012,0.1595049 0.14551,0.055967 0.23506,0.1147319 0.26864,0.1762952 -0.0448,0.06716 -0.12592,0.1259251 -0.24345,0.1762951 -0.11753,0.044776 -0.24066,0.086749 -0.36938,0.1259254 -0.12313,0.033582 -0.23786,0.067156 -0.3442,0.10074 -0.10074,0.027981 -0.1595,0.058763 -0.17629,0.092345 -0.35259,0.027981 -0.69119,0.069957 -1.0158,0.1259254 -0.31901,0.05597 -0.65481,0.08395 -1.0074,0.08395 -0.55407,0 -1.07456,-0.047569 -1.56147,-0.1427149 -0.48131,-0.095144 -0.98502,-0.2350606 -1.5111,-0.4197504 -0.006,0 -0.0224,-0.00281 -0.0504,-0.00839 -0.0224,-0.011194 -0.0504,-0.025189 -0.084,-0.041976 -0.028,-0.016789 -0.0559,-0.033582 -0.084,-0.05037 -0.0224,-0.022387 -0.0548,-0.060081 -0.0336,-0.06716 z"
       style="font-size:18.6667px;line-height:1.25;font-family:Yiroglyphics;-inkscape-font-specification:'Yiroglyphics, Normal';letter-spacing:0px;word-spacing:0px;white-space:pre;fill:#000000;stroke-width:0.10476"
       id="path1" />
  </g>
</svg>
