<?xml version="1.0" encoding="UTF-8" standalone="no"?>
<svg
   width="150"
   height="36"
   version="1.1"
   id="svg10"
   sodipodi:docname="page-logo.svg"
   inkscape:version="1.3 (0e150ed6c4, 2023-07-21)"
   xmlns:inkscape="http://www.inkscape.org/namespaces/inkscape"
   xmlns:sodipodi="http://sodipodi.sourceforge.net/DTD/sodipodi-0.dtd"
   xmlns="http://www.w3.org/2000/svg"
   xmlns:svg="http://www.w3.org/2000/svg">
  <defs
     id="defs14">
    <radialGradient
       id="grd"
       r="60"
       gradientUnits="userSpaceOnUse">
      <stop
         offset="0"
         stop-color="#9a9a9a"
         id="stop26" />
      <stop
         offset="0.70"
         stop-color="#bababa"
         id="stop27" />
      <stop
         offset="0.95"
         stop-color="#fff"
         id="stop28" />
    </radialGradient>
    <radialGradient
       id="radialGradient3"
       r="60"
       gradientUnits="userSpaceOnUse">
      <stop
         offset="0"
         stop-color="#9a9a9a"
         id="stop1" />
      <stop
         offset="0.70"
         stop-color="#bababa"
         id="stop2" />
      <stop
         offset="0.95"
         stop-color="#fff"
         id="stop3" />
    </radialGradient>
    <radialGradient
       id="radialGradient6"
       r="60"
       gradientUnits="userSpaceOnUse">
      <stop
         offset="0"
         stop-color="#9a9a9a"
         id="stop4" />
      <stop
         offset="0.70"
         stop-color="#bababa"
         id="stop5" />
      <stop
         offset="0.95"
         stop-color="#fff"
         id="stop6" />
    </radialGradient>
    <radialGradient
       id="radialGradient9"
       r="60"
       gradientUnits="userSpaceOnUse">
      <stop
         offset="0"
         stop-color="#9a9a9a"
         id="stop7" />
      <stop
         offset="0.70"
         stop-color="#bababa"
         id="stop8" />
      <stop
         offset="0.95"
         stop-color="#fff"
         id="stop9" />
    </radialGradient>
    <radialGradient
       id="radialGradient12"
       r="60"
       gradientUnits="userSpaceOnUse">
      <stop
         offset="0"
         stop-color="#9a9a9a"
         id="stop10" />
      <stop
         offset="0.70"
         stop-color="#bababa"
         id="stop11" />
      <stop
         offset="0.95"
         stop-color="#fff"
         id="stop12" />
    </radialGradient>
    <radialGradient
       id="radialGradient15"
       r="60"
       gradientUnits="userSpaceOnUse">
      <stop
         offset="0"
         stop-color="#9a9a9a"
         id="stop13" />
      <stop
         offset="0.70"
         stop-color="#bababa"
         id="stop14" />
      <stop
         offset="0.95"
         stop-color="#fff"
         id="stop15" />
    </radialGradient>
  </defs>
  <sodipodi:namedview
     id="namedview12"
     pagecolor="#505050"
     bordercolor="#ffffff"
     borderopacity="1"
     inkscape:pageshadow="0"
     inkscape:pageopacity="0"
     inkscape:pagecheckerboard="1"
     showgrid="true"
     width="137px"
     inkscape:current-layer="g139"
     showguides="true"
     inkscape:guide-bbox="true"
     inkscape:showpageshadow="0"
     inkscape:deskcolor="#d1d1d1">
    <inkscape:grid
       type="xygrid"
       id="grid5602"
       originx="0"
       originy="0"
       spacingy="1"
       spacingx="1"
       units="px"
       visible="true" />
    <sodipodi:guide
       position="60,37"
       orientation="0,-1"
       id="guide140"
       inkscape:locked="false" />
  </sodipodi:namedview>
  <g
     id="g139"
     transform="matrix(3.0896103,0,0,3.0896103,1.3507562,-2.4922591)"
     style="stroke-width:0.323666">
    <path
       d="M 13.549267,-8.4848638 C 13.2576,-11.852294 10.791686,-13.761388 7.3712254,-13.761388 c -3.6590975,0 -6.54925422,2.439398 -6.54925422,6.973497 0,4.5142127 2.81061112,6.9734974 6.54925422,6.9734974 3.9772796,0 5.9924346,-2.7575807 6.1780416,-5.0644031 l -3.7386432,-0.026515 c -0.1856064,1.16004 -1.0075776,1.8825792 -2.3598528,1.8825792 -1.7964047,0 -2.8371263,-1.2727296 -2.8371263,-3.7651583 0,-2.3598528 1.0075776,-3.765158 2.8636415,-3.765158 1.4185632,0 2.2272768,0.8352284 2.3333376,2.0681852 z m 4.560598,8.643955 c 1.32576,0 2.326709,-0.45075839 2.943187,-1.590912 h 0.07955 V 0 h 3.42046 v -6.9734974 c 0,-1.8825792 -1.783147,-3.3409156 -4.69319,-3.3409156 -3.042619,0 -4.540728,1.5909124 -4.666675,3.4469764 h 3.36743 c 0.08618,-0.629736 0.550191,-0.928032 1.246215,-0.928032 0.636364,0 1.087123,0.2916672 1.087123,0.8219712 v 0.026515 c 0,0.5899631 -0.649623,0.7755695 -2.359853,0.9015167 -2.10133,0.1524624 -3.738643,1.0009488 -3.738643,3.2348544 0,2.02841272 1.365533,2.9697023 3.3144,2.9697023 z m 1.193184,-2.3068223 c -0.623107,0 -1.060608,-0.3049248 -1.060608,-0.8750016 0,-0.5236752 0.371213,-0.928032 1.219699,-1.060608 0.583334,-0.092803 1.073866,-0.2121216 1.458336,-0.3712128 v 0.8484864 c 0,0.928032 -0.788827,1.458336 -1.617427,1.458336 z M 26.303078,0 h 3.659097 v -10.181837 h -3.659097 z m 1.829549,-11.242445 c 0.994319,0 1.803033,-0.749054 1.803033,-1.670457 0,-0.921403 -0.808714,-1.670458 -1.803033,-1.670458 -0.99432,0 -1.803034,0.749055 -1.803034,1.670458 0,0.921403 0.808714,1.670457 1.803034,1.670457 z M 31.81823,0 h 3.659097 v -5.3030399 c 0,-1.1666687 0.802085,-1.9356095 1.882579,-1.9356095 0.377842,0 0.987692,0.059659 1.352276,0.1856064 v -3.122165 c -0.291668,-0.08617 -0.60985,-0.139205 -0.928032,-0.139205 -1.087124,0 -1.93561,0.6363652 -2.306823,2.068186 h -0.106061 v -1.93561 H 31.81823 Z m 12.409119,0.1856064 c 3.3144,0 5.276524,-2.121216 5.276524,-5.2500095 0,-3.1287935 -1.962124,-5.2500099 -5.276524,-5.2500099 -3.3144,0 -5.276525,2.1212164 -5.276525,5.2500099 0,3.1287935 1.962125,5.2500095 5.276525,5.2500095 z m 0.02652,-2.7045503 c -0.981062,0 -1.564397,-0.9744336 -1.564397,-2.5719744 0,-1.5975407 0.583335,-2.5719743 1.564397,-2.5719743 0.928032,0 1.511366,0.9744336 1.511366,2.5719743 0,1.5975408 -0.583334,2.5719744 -1.511366,2.5719744 z"
       id="text31"
       style="font-weight:900;font-size:18.6667px;line-height:1.25;font-family:Inter;-inkscape-font-specification:'Inter, Heavy';letter-spacing:0px;word-spacing:0px;white-space:pre;stroke-width:0.159671"
       transform="matrix(0.65609431,0,0,0.65609431,7.3284629,11.355778)"
       aria-label="Cairo" />
  </g>
</svg>
